<?xml version="1.0" encoding="utf-8"?>
<svg xmlns="http://www.w3.org/2000/svg" viewBox="0 0 32 32" width="512" height="512">
  <path d="M16 5C9.382813 5 4 10.382813 4 17C4 20.445313 5.457031 23.535156 7.78125 25.71875L8.09375 26L23.90625 26L24.21875 25.71875C26.542969 23.535156 28 20.445313 28 17C28 10.382813 22.617188 5 16 5 Z M 16 7C21.535156 7 26 11.464844 26 17C26 19.753906 24.832031 22.191406 23.03125 24L8.96875 24C7.167969 22.191406 6 19.753906 6 17C6 11.464844 10.464844 7 16 7 Z M 16 8C15.449219 8 15 8.449219 15 9C15 9.550781 15.449219 10 16 10C16.550781 10 17 9.550781 17 9C17 8.449219 16.550781 8 16 8 Z M 12 9.0625C11.449219 9.0625 11 9.511719 11 10.0625C11 10.613281 11.449219 11.0625 12 11.0625C12.550781 11.0625 13 10.613281 13 10.0625C13 9.511719 12.550781 9.0625 12 9.0625 Z M 20 9.0625C19.449219 9.0625 19 9.511719 19 10.0625C19 10.613281 19.449219 11.0625 20 11.0625C20.550781 11.0625 21 10.613281 21 10.0625C21 9.511719 20.550781 9.0625 20 9.0625 Z M 9.0625 12C8.511719 12 8.0625 12.449219 8.0625 13C8.0625 13.550781 8.511719 14 9.0625 14C9.613281 14 10.0625 13.550781 10.0625 13C10.0625 12.449219 9.613281 12 9.0625 12 Z M 22.9375 12C22.742188 12 22.5625 12.058594 22.40625 12.15625L17 15.28125C16.707031 15.109375 16.363281 15 16 15C14.894531 15 14 15.894531 14 17C14 18.105469 14.894531 19 16 19C17.105469 19 18 18.105469 18 17L23.3125 13.90625C23.671875 13.753906 23.9375 13.414063 23.9375 13C23.9375 12.449219 23.488281 12 22.9375 12 Z M 8 16C7.449219 16 7 16.449219 7 17C7 17.550781 7.449219 18 8 18C8.550781 18 9 17.550781 9 17C9 16.449219 8.550781 16 8 16 Z M 24 16C23.449219 16 23 16.449219 23 17C23 17.550781 23.449219 18 24 18C24.550781 18 25 17.550781 25 17C25 16.449219 24.550781 16 24 16 Z M 9.0625 20C8.511719 20 8.0625 20.449219 8.0625 21C8.0625 21.550781 8.511719 22 9.0625 22C9.613281 22 10.0625 21.550781 10.0625 21C10.0625 20.449219 9.613281 20 9.0625 20 Z M 22.9375 20C22.386719 20 21.9375 20.449219 21.9375 21C21.9375 21.550781 22.386719 22 22.9375 22C23.488281 22 23.9375 21.550781 23.9375 21C23.9375 20.449219 23.488281 20 22.9375 20Z" />
</svg>