<?xml version="1.0" encoding="utf-8"?>
<svg xmlns="http://www.w3.org/2000/svg" viewBox="0 0 80 80" width="480" height="480">
  <path d="M24 5C22.906937 5 22 5.9069372 22 7L22 10L15 10C12.250484 10 10 12.250484 10 15L10 65C10 67.749516 12.250484 70 15 70L65 70C67.749516 70 70 67.749516 70 65L70 15C70 12.250484 67.749516 10 65 10L58 10L58 7C58 5.9069372 57.093063 5 56 5L54 5C52.906937 5 52 5.9069372 52 7L52 10L28 10L28 7C28 5.9069372 27.093063 5 26 5L24 5 z M 24 7L26 7L26 15L24 15L24 7 z M 54 7L56 7L56 15L54 15L54 7 z M 15 12L22 12L22 15C22 16.093063 22.906937 17 24 17L26 17C27.093063 17 28 16.093063 28 15L28 12L52 12L52 15C52 16.093063 52.906937 17 54 17L56 17C57.093063 17 58 16.093063 58 15L58 12L65 12C66.668484 12 68 13.331516 68 15L68 22L12 22L12 15C12 13.331516 13.331516 12 15 12 z M 12 24L68 24L68 65C68 66.668484 66.668484 68 65 68L15 68C13.331516 68 12 66.668484 12 65L12 24 z M 40 32.5L32 40.5L48 40.5L40 32.5 z M 32 44.5L40 52.5L48 44.5L32 44.5 z M 16 62 A 1 1 0 0 0 15 63 A 1 1 0 0 0 16 64 A 1 1 0 0 0 17 63 A 1 1 0 0 0 16 62 z M 20 62 A 1 1 0 0 0 19 63 A 1 1 0 0 0 20 64 A 1 1 0 0 0 21 63 A 1 1 0 0 0 20 62 z M 24 62 A 1 1 0 0 0 23 63 A 1 1 0 0 0 24 64 A 1 1 0 0 0 25 63 A 1 1 0 0 0 24 62 z M 28 62 A 1 1 0 0 0 27 63 A 1 1 0 0 0 28 64 A 1 1 0 0 0 29 63 A 1 1 0 0 0 28 62 z M 32 62 A 1 1 0 0 0 31 63 A 1 1 0 0 0 32 64 A 1 1 0 0 0 33 63 A 1 1 0 0 0 32 62 z M 36 62 A 1 1 0 0 0 35 63 A 1 1 0 0 0 36 64 A 1 1 0 0 0 37 63 A 1 1 0 0 0 36 62 z M 40 62 A 1 1 0 0 0 39 63 A 1 1 0 0 0 40 64 A 1 1 0 0 0 41 63 A 1 1 0 0 0 40 62 z M 44 62 A 1 1 0 0 0 43 63 A 1 1 0 0 0 44 64 A 1 1 0 0 0 45 63 A 1 1 0 0 0 44 62 z M 48 62 A 1 1 0 0 0 47 63 A 1 1 0 0 0 48 64 A 1 1 0 0 0 49 63 A 1 1 0 0 0 48 62 z M 52 62 A 1 1 0 0 0 51 63 A 1 1 0 0 0 52 64 A 1 1 0 0 0 53 63 A 1 1 0 0 0 52 62 z M 56 62 A 1 1 0 0 0 55 63 A 1 1 0 0 0 56 64 A 1 1 0 0 0 57 63 A 1 1 0 0 0 56 62 z M 60 62 A 1 1 0 0 0 59 63 A 1 1 0 0 0 60 64 A 1 1 0 0 0 61 63 A 1 1 0 0 0 60 62 z M 64 62 A 1 1 0 0 0 63 63 A 1 1 0 0 0 64 64 A 1 1 0 0 0 65 63 A 1 1 0 0 0 64 62 z" />
</svg>