<?xml version="1.0" encoding="utf-8"?>
<svg xmlns="http://www.w3.org/2000/svg" viewBox="0 0 50 50" width="500" height="500">
  <path d="M41 4C39.401901 4 38.032195 4.9588045 37.396484 6.3242188C35.793657 5.4494236 34.016527 5.0058565 32.236328 5.0058594C29.479669 5.0058638 26.72405 6.054697 24.626953 8.1523438L20.025391 12.751953L20.119141 12.712891C20.059571 12.765471 20.044001 12.779742 19.998047 12.820312L20.025391 12.753906C19.474984 13.304627 17.567757 14.142543 15.414062 14.746094C13.260369 15.349645 10.82971 15.832149 8.984375 16.169922C8.0457785 16.342084 7.0233432 16.552829 6.21875 17.357422C6.0895167 17.486655 6.1211055 17.467343 6.1328125 17.462891C6.1343725 17.454391 6.1735996 17.407666 6.0410156 17.535156L6.0332031 17.541016L6.0273438 17.548828C5.8230173 17.753155 5.8092504 17.889041 5.7890625 17.980469C4.5547834 19.812833 4.867208 22.409131 6.1191406 25.251953C7.4226037 28.211788 9.8013018 31.559625 13.121094 34.878906C13.69663 35.454442 14.272671 35.991526 14.847656 36.509766C13.172039 37.319777 12 39.023245 12 41C12 43.749516 14.250484 46 17 46C19.577008 46 21.716393 44.023574 21.974609 41.511719C22.233849 41.63921 22.494242 41.769094 22.748047 41.880859C25.624918 43.147715 28.255083 43.461774 30.089844 42.173828C30.188994 42.143468 30.285377 42.136498 30.449219 41.972656C30.591473 41.830402 30.54058 41.870506 30.53125 41.871094C30.51784 41.890844 30.50784 41.914037 30.642578 41.779297C31.446656 40.975219 31.658792 39.952971 31.830078 39.013672L31.830078 39.011719C32.167875 37.167362 32.648833 34.736889 33.251953 32.583984C33.855248 30.430456 34.692509 28.525613 35.244141 27.974609C35.244146 27.974604 35.247747 27.96915 35.248047 27.96875C35.248041 27.968756 35.253406 27.963491 35.253906 27.962891L39.84375 23.371094C42.974333 20.244614 43.767797 15.651389 42.230469 11.777344C43.826997 11.253242 45 9.7655297 45 8C45 5.8026661 43.197334 4 41 4 z M 41 6C42.116666 6 43 6.8833339 43 8C43 9.0119024 42.26734 9.8197632 41.298828 9.9628906C40.888363 9.3212334 40.407714 8.7125483 39.847656 8.1523438C39.604237 7.9089249 39.349995 7.6819706 39.089844 7.4667969C39.32215 6.6210696 40.073347 6 41 6 z M 32.236328 6.9921875C34.476919 6.9921919 36.718165 7.8509779 38.433594 9.5664062C41.863501 12.997213 41.863993 18.529224 38.431641 21.957031L33.833984 26.554688C33.833981 26.554689 33.832231 26.558494 33.832031 26.558594L33.830078 26.560547C32.627816 27.762755 31.959818 29.783051 31.326172 32.044922C30.692217 34.307894 30.205469 36.783895 29.863281 38.652344L29.861328 38.652344L29.861328 38.654297C29.702672 39.524503 29.531922 40.061828 29.228516 40.365234C29.317196 40.276554 29.25328 40.330949 29.15625 40.417969L29.152344 40.419922C29.134274 40.436242 29.164235 40.407957 29.140625 40.429688L29.037109 40.507812C28.144276 41.198354 26.197222 41.214444 23.554688 40.050781C20.912153 38.887118 17.715899 36.645587 14.535156 33.464844L14.535156 33.462891C11.355135 30.283059 9.1130056 27.087978 7.9492188 24.445312C6.7854319 21.802647 6.7995716 19.854256 7.4902344 18.960938L7.5585938 18.873047L7.5605469 18.867188L7.5683594 18.859375C7.7231247 18.690954 7.7459683 18.658328 7.6328125 18.771484C7.9362193 18.468078 8.4742996 18.296556 9.3457031 18.136719C11.215368 17.794492 13.692021 17.306074 15.955078 16.671875C17.991829 16.101096 19.747104 15.451305 20.970703 14.460938L21.146484 14.460938L21.439453 14.167969L21.732422 13.875L26.041016 9.5664062C27.755919 7.851053 29.995738 6.9921831 32.236328 6.9921875 z M 32 10C30.863934 10 29.072103 10.482888 27.287109 12.298828C26.075818 13.531177 23.299573 16.36828 22.324219 17.263672C21.893299 17.659061 20.23437 18.365745 18.5 18.863281C16.76563 19.360817 14.916102 19.757923 13.771484 20.025391 A 1.0010406 1.0010406 0 1 0 14.228516 21.974609C15.334898 21.716077 17.226901 21.30837 19.050781 20.785156C20.874662 20.261942 22.590701 19.731939 23.675781 18.736328C24.798427 17.70572 27.508182 14.926823 28.712891 13.701172C30.157897 12.231112 31.418066 12 32 12 A 1.0001 1.0001 0 1 0 32 10 z M 21.277344 14.269531C21.240474 14.302081 21.179658 14.355479 21.179688 14.355469C21.179724 14.35545 21.130673 14.371443 21.095703 14.382812C21.146763 14.339182 21.228643 14.314682 21.277344 14.269531 z M 16.636719 38.037109C17.752845 38.932418 18.853473 39.709014 19.925781 40.371094C19.969448 40.574082 20 40.782159 20 41C20 42.668484 18.668484 44 17 44C15.331516 44 14 42.668484 14 41C14 39.45628 15.144771 38.216207 16.636719 38.037109 z" />
</svg>