<?xml version="1.0" encoding="utf-8"?>
<svg xmlns="http://www.w3.org/2000/svg" viewBox="0 0 50 50" width="500" height="500">
  <path d="M19.125 0C17.503906 0 16.148438 1.097656 15.75 2.59375L4.46875 10C4.164063 9.914063 3.835938 9.84375 3.5 9.84375C1.566406 9.84375 0 11.410156 0 13.34375C0 14.292969 0.386719 15.152344 1 15.78125L1 44.0625C0.386719 44.691406 0 45.550781 0 46.5C0 48.433594 1.566406 50 3.5 50C4.449219 50 5.308594 49.613281 5.9375 49L31.09375 49C31.722656 49.617188 32.582031 50 33.53125 50C35.464844 50 37.03125 48.433594 37.03125 46.5C37.03125 46.246094 37.019531 45.988281 36.96875 45.75L46.9375 32.1875C48.664063 31.972656 50 30.503906 50 28.71875C50 27.1875 49.023438 25.914063 47.65625 25.4375L40.46875 10.375C40.800781 9.839844 41 9.207031 41 8.53125C41 6.597656 39.433594 5.03125 37.5 5.03125C36.6875 5.03125 35.9375 5.316406 35.34375 5.78125L22.0625 1.625C21.441406 0.648438 20.367188 0 19.125 0 Z M 21.8125 5.71875L34.1875 9.625C34.578125 10.816406 35.5625 11.722656 36.8125 11.96875L43.75 26.59375C43.289063 27.1875 43 27.90625 43 28.71875C43 29.265625 43.148438 29.789063 43.375 30.25L33.96875 43.03125C33.828125 43.015625 33.679688 43 33.53125 43C32.132813 43 30.933594 43.8125 30.375 45L6.65625 45C6.308594 44.265625 5.734375 43.691406 5 43.34375L5 16.5C6.1875 15.941406 7 14.742188 7 13.34375C7 13.265625 6.972656 13.199219 6.96875 13.125L17.1875 6.4375C17.738281 6.800781 18.414063 7 19.125 7C20.210938 7 21.171875 6.496094 21.8125 5.71875Z" />
</svg>