<?xml version="1.0" encoding="utf-8"?>
<svg xmlns="http://www.w3.org/2000/svg" viewBox="0 0 48 48" width="144" height="144">
  <path d="M34.833984 4C34.529984 4 34.231766 4.1177969 34.009766 4.3417969L31.675781 6.6757812C31.219781 7.1307813 31.219781 7.8692187 31.675781 8.3242188L34.009766 10.658203C34.342766 10.991203 34.842297 11.091156 35.279297 10.910156C35.715297 10.729156 36 10.304031 36 9.8320312L36 9L36.5 9C37.898226 9 39 10.101774 39 11.5L39 13.5 A 1.50015 1.50015 0 1 0 42 13.5L42 11.5C42 8.4802259 39.519774 6 36.5 6L36 6L36 5.1679688C36 4.6949687 35.715297 4.2698437 35.279297 4.0898438C35.135297 4.0298437 34.982984 4 34.833984 4 z M 18 5C10.838262 5 5 10.838262 5 18C5 24.840054 10.329073 30.460908 17.046875 30.953125C17.539076 37.671081 23.159754 43 30 43C37.161939 43 43 37.161933 43 30C43 23.15976 37.671085 17.539076 30.953125 17.046875C30.460908 10.329073 24.840054 5 18 5 z M 18 8C23.262584 8 27.54241 12.026096 27.958984 17.177734C25.897597 17.505744 23.999813 18.315941 22.378906 19.496094C21.97695 17.922417 20.535927 16.75 18.8125 16.75L17.4375 16.75C16.7825 16.75 16.25 16.245 16.25 15.625C16.25 15.005 16.7815 14.5 17.4375 14.5L18.751953 14.5C19.378953 14.5 19.677406 14.894109 19.691406 14.912109C20.056406 15.498109 20.828109 15.678547 21.412109 15.310547C21.998109 14.944547 22.177547 14.173891 21.810547 13.587891C21.717547 13.439891 20.912 12.253969 19.25 12.042969L19.25 11.25C19.25 10.56 18.69 10 18 10C17.31 10 16.75 10.56 16.75 11.25L16.75 12.068359C15.045 12.386359 13.75 13.857 13.75 15.625C13.75 17.624 15.4035 19.25 17.4375 19.25L18.8125 19.25C19.4675 19.25 20.001953 19.755 20.001953 20.375C20.001953 20.995 19.4675 21.5 18.8125 21.5L17.039062 21.5C16.383063 21.5 15.892297 21.168016 15.779297 21.041016C15.392297 20.480016 14.625641 20.332938 14.056641 20.710938C13.482641 21.093937 13.328937 21.869359 13.710938 22.443359C14.226938 23.217359 15.533109 24 17.037109 24L18.480469 24C17.842138 25.21926 17.401476 26.552876 17.177734 27.958984C12.026096 27.54241 8 23.262584 8 18C8 12.459738 12.459738 8 18 8 z M 30 20C35.540619 20 40 24.459384 40 30C40 35.540616 35.540619 40 30 40C24.459381 40 20 35.540616 20 30C20 29.963713 20.005478 29.928771 20.005859 29.892578 A 1.50015 1.50015 0 0 0 20.039062 29.195312C20.426148 24.302451 24.299077 20.427987 29.191406 20.039062 A 1.50015 1.50015 0 0 0 29.894531 20.005859C29.93007 20.005491 29.964371 20 30 20 z M 29.980469 21.982422 A 1.250125 1.250125 0 0 0 28.75 23.25L28.75 24L27 24 A 1.250125 1.250125 0 0 0 25.75 25.25L25.75 29.634766L25.75 34.75 A 1.250125 1.250125 0 0 0 27 36L28.75 36L28.75 36.75 A 1.250125 1.250125 0 1 0 31.25 36.75L31.25 36L31.830078 36C33.904117 36 35.625 34.303832 35.625 32.230469C35.625 30.856799 34.884204 29.623863 33.771484 28.939453C33.990429 28.500398 34.125 28.012516 34.125 27.486328C34.125 25.79262 32.860262 24.437363 31.25 24.128906L31.25 23.25 A 1.250125 1.250125 0 0 0 29.980469 21.982422 z M 28.25 26.5L29.800781 26.5 A 1.250125 1.250125 0 0 0 30.193359 26.5L30.617188 26.5C31.193711 26.5 31.625 26.933514 31.625 27.486328C31.625 28.016743 31.274456 28.349238 30.683594 28.375L28.25 28.375L28.25 26.5 z M 30.714844 30.875L31.830078 30.875C32.514438 30.875 33.125 31.521832 33.125 32.230469C33.125 32.939106 32.566039 33.5 31.830078 33.5L30.216797 33.5 A 1.250125 1.250125 0 0 0 29.980469 33.480469 A 1.250125 1.250125 0 0 0 29.789062 33.5L28.25 33.5L28.25 30.884766L30.617188 30.884766C30.650374 30.884766 30.681798 30.875939 30.714844 30.875 z M 7.4765625 32.978516 A 1.50015 1.50015 0 0 0 6 34.5L6 36.5C6 39.519774 8.4802259 42 11.5 42L12 42L12 42.832031C12 43.305031 12.284703 43.730156 12.720703 43.910156C12.864703 43.970156 13.017016 44 13.166016 44C13.470016 44 13.768234 43.882203 13.990234 43.658203L16.324219 41.324219C16.780219 40.869219 16.780219 40.130781 16.324219 39.675781L13.990234 37.341797C13.657234 37.008797 13.157703 36.908844 12.720703 37.089844C12.284703 37.270844 12 37.695969 12 38.167969L12 39L11.5 39C10.101774 39 9 37.898226 9 36.5L9 34.5 A 1.50015 1.50015 0 0 0 7.4765625 32.978516 z" />
</svg>