<?xml version="1.0" encoding="utf-8"?>
<svg xmlns="http://www.w3.org/2000/svg" x="0" y="0" viewBox="0 0 128 128" width="512" height="512">
  <path fill="#fff" d="M69.6,21.6c-2.5-4.3-8.7-4.3-11.2,0L4.9,114.3c-2.5,4.3,0.6,9.7,5.6,9.7h107c5,0,8.1-5.4,5.6-9.7L69.6,21.6z" />
  <path fill="#444b54" d="M117.5,127h-107c-3.4,0-6.5-1.8-8.2-4.7c-1.7-3-1.7-6.5,0-9.5l53.5-92.7c1.7-3,4.8-4.7,8.2-4.7 s6.5,1.8,8.2,4.7l14.2,24.6c0.7,1.3,0.4,2.9-0.7,3.8L58.1,71.8h25.8c1.3,0,2.4,0.8,2.8,2c0.4,1.2,0.1,2.5-0.9,3.3l-34,28.6 c-1.3,1.1-3.2,0.9-4.2-0.4c-1.1-1.3-0.9-3.2,0.4-4.2l27.7-23.3H49.8c-1.3,0-2.4-0.8-2.8-2c-0.4-1.2-0.1-2.5,0.9-3.3L80,45.5 L67,23.1c-0.9-1.6-2.4-1.7-3-1.7s-2.1,0.2-3,1.7L7.5,115.8c-0.9,1.6-0.3,3,0,3.5c0.3,0.5,1.2,1.7,3,1.7h107c1.8,0,2.7-1.2,3-1.7 c0.3-0.5,0.9-1.9,0-3.5L91.9,66.3c-0.8-1.4-0.3-3.3,1.1-4.1c1.4-0.8,3.3-0.3,4.1,1.1l28.6,49.5c1.7,3,1.7,6.5,0,9.5 C124,125.2,120.9,127,117.5,127z" />
</svg>