<?xml version="1.0" encoding="utf-8"?>
<svg xmlns="http://www.w3.org/2000/svg" x="0" y="0" viewBox="0 0 128 128" width="512" height="512">
  <path fill="#fff" d="M93.9,114L93.9,114C77.4,114,64,110.6,64,94.1V83h59.9v11.1C123.9,110.6,110.5,114,93.9,114" />
  <path fill="#fff" d="M82,114H14c-5.5,0-10-4.5-10-10V24c0-5.5,4.5-10,10-10h68V114z" />
  <path fill="#e4e4e7" d="M124,26c0-8.7-3.7-16.5-9.6-22H73.6C67.7,9.5,64,17.3,64,26s3.7,16.5,9.6,22h40.8C120.3,42.5,124,34.7,124,26 z" />
  <path fill="#444b54" d="M54,117H14c-7.2,0-13-5.8-13-13V24c0-7.2,5.8-13,13-13h32c1.7,0,3,1.3,3,3s-1.3,3-3,3H14c-3.9,0-7,3.1-7,7v80 c0,3.9,3.1,7,7,7h40c1.7,0,3,1.3,3,3S55.7,117,54,117z" />
  <path fill="#444b54" d="M82,31c-1.7,0-3-1.3-3-3v-4c0-1.7,1.3-3,3-3s3,1.3,3,3v4C85,29.7,83.7,31,82,31z" />
  <path fill="#444b54" d="M106,31c-1.7,0-3-1.3-3-3v-4c0-1.7,1.3-3,3-3s3,1.3,3,3v4C109,29.7,107.7,31,106,31z" />
  <path fill="#444b54" d="M123.9,80H109V64c0-1.7-1.3-3-3-3s-3,1.3-3,3v16H85V64c0-1.7-1.3-3-3-3s-3,1.3-3,3v16H64c-1.7,0-3,1.3-3,3 v11.1c0,20.8,19.6,22.7,30,22.9v11c0,1.7,1.3,3,3,3s3-1.3,3-3v-11c10.4-0.2,29.9-2.2,29.9-22.9V83C126.9,81.3,125.6,80,123.9,80z M120.9,94.1c0,12-7.8,16.9-26.9,16.9S67,106.1,67,94.1V86h14.9c0,0,0,0,0.1,0s0,0,0.1,0h23.9c0,0,0,0,0.1,0s0,0,0.1,0h14.8V94.1z" />
  <path fill="#444b54" d="M114.4,51H73.6c-0.8,0-1.5-0.3-2-0.8C64.9,44,61,35.2,61,26S64.9,8,71.6,1.8c0.6-0.5,1.3-0.8,2-0.8h40.8 c0.8,0,1.5,0.3,2,0.8C123.1,8,127,16.8,127,26s-3.9,18-10.6,24.2C115.9,50.7,115.1,51,114.4,51z M74.8,45h38.3 c5-5,7.8-11.9,7.8-19s-2.8-14-7.8-19H74.8c-5,5-7.8,11.9-7.8,19S69.8,40,74.8,45z" />
  <path fill="#444b54" d="M20,75.7c-0.9,0-1.7-0.4-2.3-1.1c-1.1-1.3-0.9-3.2,0.4-4.2l19.7-16.5H20c-1.3,0-2.4-0.8-2.8-2 c-0.4-1.2-0.1-2.5,0.9-3.3l26-21.8c1.3-1.1,3.2-0.9,4.2,0.4c1.1,1.3,0.9,3.2-0.4,4.2L28.2,47.8H46c1.3,0,2.4,0.8,2.8,2 c0.4,1.2,0.1,2.5-0.9,3.3L21.9,75C21.4,75.4,20.7,75.7,20,75.7z" />
  <path fill="#444b54" d="M34,102c-5.5,0-10-4.5-10-10s4.5-10,10-10s10,4.5,10,10S39.5,102,34,102z M34,88c-2.2,0-4,1.8-4,4 c0,2.2,1.8,4,4,4s4-1.8,4-4C38,89.8,36.2,88,34,88z" />
</svg>