<?xml version="1.0" encoding="utf-8"?>
<svg xmlns="http://www.w3.org/2000/svg" viewBox="0 0 32 32" width="512" height="512">
  <path d="M27.28125 3.28125L24.125 6.4375L22.71875 5C22.65625 4.925781 22.582031 4.863281 22.5 4.8125C21.910156 4.484375 21.191406 4.265625 20.5 4.25C19.808594 4.234375 19.148438 4.4375 18.5625 4.9375C18.539063 4.957031 18.519531 4.976563 18.5 5L15.40625 8.09375C15.300781 8.1875 15.214844 8.304688 15.15625 8.4375L14.125 11.0625L10.8125 14.375L8.21875 15.375C8.101563 15.425781 7.996094 15.5 7.90625 15.59375L4.78125 18.6875C4.207031 19.261719 4.085938 20.039063 4.15625 20.71875C4.226563 21.398438 4.496094 22.042969 4.90625 22.59375C4.933594 22.636719 4.964844 22.679688 5 22.71875L6.4375 24.125L3.28125 27.28125L4.71875 28.71875L7.875 25.5625L9.28125 27C10.386719 28.105469 12.234375 28.265625 13.40625 27.09375L16.5 24C16.597656 23.902344 16.671875 23.785156 16.71875 23.65625L17.78125 21.03125L21.03125 17.78125L23.65625 16.71875C23.785156 16.671875 23.902344 16.597656 24 16.5L27.09375 13.40625C27.679688 12.820313 27.898438 12.019531 27.84375 11.3125C27.789063 10.605469 27.503906 9.957031 27.09375 9.40625C27.066406 9.363281 27.035156 9.320313 27 9.28125L25.5625 7.875L28.71875 4.71875 Z M 20.5 6.34375C20.792969 6.351563 21.132813 6.410156 21.4375 6.5625L25.5 10.59375L25.53125 10.65625C25.699219 10.902344 25.824219 11.21875 25.84375 11.46875C25.863281 11.738281 25.800781 11.886719 25.6875 12L22.71875 14.96875L20.65625 15.75L18 13.1875L16.59375 14.625L19.03125 16.9375L16.9375 19.03125L14.625 16.59375L13.1875 18L15.75 20.65625L14.96875 22.71875L12 25.6875C11.769531 25.917969 11.015625 25.890625 10.71875 25.59375L6.5 21.40625C6.484375 21.386719 6.480469 21.363281 6.46875 21.34375C6.300781 21.097656 6.183594 20.78125 6.15625 20.53125C6.128906 20.257813 6.195313 20.117188 6.21875 20.09375L9.1875 17.125L11.78125 16.125C11.898438 16.074219 12.003906 16 12.09375 15.90625L15.71875 12.3125C15.816406 12.214844 15.890625 12.097656 15.9375 11.96875L16.9375 9.375L19.84375 6.46875C19.953125 6.375 20.207031 6.335938 20.5 6.34375Z" />
</svg>