<?xml version="1.0" encoding="utf-8"?>
<svg xmlns="http://www.w3.org/2000/svg" viewBox="0 0 32 32" width="512" height="512">
  <path d="M9 7L9 11L0 11L0 13L9 13L9 19L0 19L0 21L9 21L9 25L15 25L15 24C15 23.445313 15.445313 23 16 23C16.554688 23 17 23.445313 17 24L17 25L28 25C30.210938 25 32 23.210938 32 21L32 11C32 8.789063 30.210938 7 28 7L17 7L17 8C17 8.554688 16.554688 9 16 9C15.445313 9 15 8.554688 15 8L15 7 Z M 11 9L13 9L13 23L11 23 Z M 19 9L28 9C29.191406 9 30 9.808594 30 11L30 21C30 22.191406 29.191406 23 28 23L19 23 Z M 15 10.78125C15.304688 10.917969 15.632813 11 16 11C16.367188 11 16.695313 10.917969 17 10.78125L17 21.21875C16.695313 21.082031 16.367188 21 16 21C15.632813 21 15.304688 21.082031 15 21.21875Z" />
</svg>