<?xml version="1.0" encoding="utf-8"?>
<svg xmlns="http://www.w3.org/2000/svg" viewBox="0 0 30 30" width="480" height="480">
  <path d="M21,4h-3V3c0-0.55-0.45-1-1-1h-4c-0.55,0-1,0.45-1,1v1H9C7.36,4,6,5.36,6,7v17c0,1.64,1.36,3,3,3h12c1.64,0,3-1.36,3-3V7 C24,5.36,22.64,4,21,4z M18.98,13.45l-2.34,7.74c-0.05,0.13-0.16,0.22-0.3,0.22c-0.08,0-0.15-0.03-0.2-0.08l-0.01,0.01l-1.47-1.22 l-3.08,3.75C11.52,23.94,11.43,24,11.33,24C11.14,24,11,23.85,11,23.66c0-0.04,0.01-0.07,0.02-0.12l3.03-7.73 c0.05-0.13,0.16-0.22,0.29-0.22c0.09,0,0.17,0.04,0.23,0.09l1.33,1.27l2.49-3.8c0.06-0.09,0.16-0.15,0.27-0.15 c0.19,0,0.34,0.15,0.34,0.34C19,13.38,18.99,13.41,18.98,13.45z M22,11H8V7c0-0.57,0.43-1,1-1h12c0.57,0,1,0.43,1,1V11z" />
</svg>