<?xml version="1.0" encoding="utf-8"?>
<svg xmlns="http://www.w3.org/2000/svg" viewBox="0 0 50 50" width="500" height="500">
  <path d="M28.488281 2C25.464844 2 22.988281 4.472656 22.988281 7.5C22.988281 9.558594 24.136719 11.359375 25.816406 12.300781C25.113281 12.070313 24.414063 12.003906 23.75 12.082031C23.058594 12.160156 22.40625 12.386719 21.824219 12.71875C20.65625 13.378906 19.714844 14.40625 18.917969 15.53125L18.902344 15.550781L13.183594 24.464844L13.179688 24.46875C12.925781 24.871094 12.660156 25.390625 12.433594 25.941406C12.203125 26.492188 12.007813 27.023438 11.988281 27.640625C11.972656 28.25 12.089844 28.867188 12.3125 29.46875L10.449219 37.355469L4.625 41.394531C4.625 41.394531 4.621094 41.398438 4.621094 41.398438C3.054688 42.429688 2.542969 44.523438 3.460938 46.160156L3.742188 46.671875L3.90625 46.671875C5.03125 47.992188 6.960938 48.40625 8.488281 47.460938L8.503906 47.453125L15.59375 42.707031C16.242188 42.308594 16.816406 41.6875 17.273438 40.933594L17.316406 40.863281L19.933594 34.273438L24 35.707031L23.988281 44.167969L24 44.035156C23.726563 46.117188 25.375 48 27.472656 48C29.195313 48 30.671875 46.734375 30.9375 45.035156L30.949219 44.964844L31 34C31 32.867188 30.613281 31.96875 30.082031 31.378906C29.554688 30.789063 28.976563 30.476563 28.59375 30.191406L28.53125 30.148438L24.523438 28.0625L28.5 21.976563L34.046875 22.953125C34.675781 23.0625 35.324219 23.019531 35.933594 22.828125L42.21875 20.863281L42.292969 20.828125C43.804688 20.066406 44.429688 18.199219 43.679688 16.683594C43.328125 15.96875 42.71875 15.40625 41.996094 15.167969C41.269531 14.925781 40.492188 14.976563 39.714844 15.191406L39.765625 15.179688L35.003906 16.230469C34.738281 16.113281 32.988281 15.351563 30.890625 14.441406C29.769531 13.957031 28.621094 13.460938 27.710938 13.074219C27.382813 12.933594 27.304688 12.90625 27.058594 12.800781C27.515625 12.925781 27.996094 13 28.488281 13C31.515625 13 33.988281 10.527344 33.988281 7.5C33.988281 4.472656 31.515625 2 28.488281 2 Z M 44 2L44 48L46 48L46 2 Z M 28.488281 4C30.433594 4 31.988281 5.554688 31.988281 7.5C31.988281 9.445313 30.433594 11 28.488281 11C26.546875 11 24.988281 9.445313 24.988281 7.5C24.988281 5.554688 26.546875 4 28.488281 4 Z M 23.96875 14.046875C24.363281 14.003906 24.777344 14.050781 25.246094 14.214844C25.253906 14.214844 26.023438 14.527344 26.925781 14.910156C27.828125 15.296875 28.972656 15.792969 30.097656 16.28125C32.34375 17.25 34.503906 18.195313 34.503906 18.195313L34.804688 18.324219L40.226563 17.125L40.25 17.121094C40.769531 16.972656 41.140625 16.988281 41.363281 17.0625C41.585938 17.140625 41.726563 17.246094 41.886719 17.566406C42.15625 18.113281 41.941406 18.738281 41.40625 19.019531L35.335938 20.921875C35.03125 21.015625 34.707031 21.039063 34.390625 20.984375L27.546875 19.777344L21.640625 28.820313L27.457031 31.84375C27.945313 32.199219 28.359375 32.449219 28.59375 32.714844C28.839844 32.988281 29 33.257813 29 34L28.949219 44.75C28.820313 45.476563 28.214844 46 27.472656 46C26.546875 46 25.859375 45.21875 25.980469 44.296875L25.988281 44.234375L26 34.292969L16.421875 30.914063C14.625 30.238281 13.957031 28.871094 13.988281 27.695313C13.992188 27.605469 14.097656 27.144531 14.28125 26.703125C14.457031 26.269531 14.695313 25.820313 14.871094 25.542969L14.875 25.535156C14.875 25.535156 14.875 25.53125 14.875 25.53125L20.546875 16.691406C21.246094 15.707031 22.027344 14.898438 22.808594 14.457031C23.195313 14.238281 23.570313 14.09375 23.96875 14.046875 Z M 13.847656 31.667969C14.371094 32.121094 14.984375 32.511719 15.71875 32.785156L15.726563 32.792969L18.046875 33.609375L15.535156 39.925781C15.242188 40.402344 14.789063 40.851563 14.542969 41.003906L14.527344 41.015625L7.4375 45.761719C6.652344 46.246094 5.652344 45.988281 5.203125 45.183594C4.789063 44.441406 5.011719 43.535156 5.71875 43.066406L5.734375 43.0625L12.21875 38.5625Z" />
</svg>