<?xml version="1.0" encoding="utf-8"?>
<svg xmlns="http://www.w3.org/2000/svg" viewBox="0 0 32 32" width="512" height="512">
  <path d="M16 3.9628906C13.75 3.9628906 12.242497 4.8456858 10.884766 5.5839844C9.5270341 6.322283 8.2816307 6.9628906 6 6.9628906L5 6.9628906L5 7.9628906C5 15.680746 7.605007 20.701796 10.246094 23.740234C12.88718 26.778672 15.626953 27.890625 15.626953 27.890625L15.998047 28.039062L16.367188 27.892578C16.367188 27.892578 19.111702 26.794044 21.753906 23.761719C24.39611 20.729394 27 15.707919 27 7.9628906L27 6.9628906L26 6.9628906C23.730806 6.9628906 22.484223 6.3226165 21.123047 5.5839844C19.761871 4.8453522 18.25 3.9628906 16 3.9628906 z M 16 5.9628906C17.75 5.9628906 18.766848 6.580429 20.169922 7.3417969C21.352057 7.9832737 22.911122 8.5887739 24.931641 8.796875C24.742901 15.566584 22.504845 19.855009 20.246094 22.447266C18.194135 24.802196 16.479735 25.617856 16.001953 25.830078C15.522949 25.614625 13.806268 24.788874 11.753906 22.427734C9.4944536 19.828347 7.259685 15.539392 7.0703125 8.796875C9.0976324 8.5888174 10.659549 7.981657 11.839844 7.3398438C13.240613 6.5781424 14.25 5.9628906 16 5.9628906 z M 16 8L12 16L16 16L16 22L20 14L16 14L16 8 z" />
</svg>