<?xml version="1.0" encoding="utf-8"?>
<svg xmlns="http://www.w3.org/2000/svg" viewBox="0 0 30 30" width="480" height="480">
  <path d="M15 3C9.4886661 3 5 7.4886661 5 13C5 18.174135 8.9555284 22.447699 14 22.951172L14 25L12 25C11.448 25 11 25.448 11 26L5 26 A 1.0001 1.0001 0 1 0 5 28L11 28C11 28.552 11.448 29 12 29L18 29C18.552 29 19 28.552 19 28L25 28 A 1.0001 1.0001 0 1 0 25 26L19 26C19 25.448 18.552 25 18 25L16 25L16 22.951172C21.044472 22.447699 25 18.174135 25 13C25 7.4886661 20.511334 3 15 3 z M 15 5C19.430666 5 23 8.5693339 23 13C23 17.392422 19.490762 20.933254 15.113281 20.994141 A 1.0001 1.0001 0 0 0 14.984375 20.986328 A 1.0001 1.0001 0 0 0 14.875 20.994141C10.503015 20.927054 7 17.388476 7 13C7 8.5693339 10.569334 5 15 5 z M 17.980469 8.9902344 A 1.0001 1.0001 0 0 0 17.292969 9.2929688L15.511719 11.074219C15.347332 11.030549 15.178179 11 15 11C13.895 11 13 11.895 13 13C13 14.105 13.895 15 15 15C16.105 15 17 14.105 17 13C17 12.821821 16.969451 12.652668 16.925781 12.488281L18.707031 10.707031 A 1.0001 1.0001 0 0 0 17.980469 8.9902344 z" />
</svg>