<?xml version="1.0" encoding="utf-8"?>
<svg xmlns="http://www.w3.org/2000/svg" viewBox="0 0 32 32" width="512" height="512">
  <path d="M6 4.5859375L0.29296875 10.292969L1.7070312 11.707031L5 8.4140625L5 20C5 23.301625 7.6983746 26 11 26C14.301625 26 17 23.301625 17 20L17 12C17 9.7796254 18.779625 8 21 8C23.220375 8 25 9.7796254 25 12L25 23.585938L21.707031 20.292969L20.292969 21.707031L26 27.414062L31.707031 21.707031L30.292969 20.292969L27 23.585938L27 12C27 8.6983746 24.301625 6 21 6C17.698375 6 15 8.6983746 15 12L15 20C15 22.220375 13.220375 24 11 24C8.7796254 24 7 22.220375 7 20L7 8.4140625L10.292969 11.707031L11.707031 10.292969L6 4.5859375 z" />
</svg>