<?xml version="1.0" encoding="utf-8"?>
<svg xmlns="http://www.w3.org/2000/svg" viewBox="0 0 32 32" width="512" height="512">
  <path d="M12 4L12 15.46875C10.25 16.738281 9 18.675781 9 21C9 24.855469 12.144531 28 16 28C19.855469 28 23 24.855469 23 21C23 18.675781 21.75 16.738281 20 15.46875L20 14L22 14L22 12L20 12L20 10L22 10L22 8L20 8L20 6L22 6L22 4 Z M 14 6L18 6L18 16.40625L18.5 16.6875C19.996094 17.554688 21 19.148438 21 21C21 23.773438 18.773438 26 16 26C13.226563 26 11 23.773438 11 21C11 19.148438 12.003906 17.554688 13.5 16.6875L14 16.40625 Z M 15 8L15 18.1875C13.839844 18.601563 13 19.699219 13 21C13 22.65625 14.34375 24 16 24C17.65625 24 19 22.65625 19 21C19 19.699219 18.160156 18.601563 17 18.1875L17 8Z" />
</svg>