<?xml version="1.0" encoding="utf-8"?>
<svg xmlns="http://www.w3.org/2000/svg" viewBox="0 0 24 24" width="480" height="480">
  <path d="M0.59375 0L1.0625 1.3125L2.75 6.3125C2.898438 6.753906 3 7.488281 3 8.09375L3 20.09375C3 22.234375 4.765625 24 6.90625 24L15.09375 24C17.234375 24 19 22.234375 19 20.09375L19 2C20.65625 2 22 3.34375 22 5L22 14L24 14L24 5C24 2.253906 21.746094 0 19 0 Z M 3.375 2L17 2L17 5L13 5L13 7L17 7L17 9L15 9L15 11L17 11L17 13L13 13L13 15L17 15L17 17L15 17L15 19L17 19L17 20.09375C17 21.152344 16.152344 22 15.09375 22L6.90625 22C5.847656 22 5 21.152344 5 20.09375L5 8.09375C5 7.296875 4.910156 6.445313 4.65625 5.6875Z" />
</svg>