<?xml version="1.0" encoding="utf-8"?>
<svg xmlns="http://www.w3.org/2000/svg" viewBox="0 0 32 32" width="512" height="512">
  <path d="M16 5C14.35503 5 13 6.3550302 13 8C13 8.3883477 13.278986 8.6579861 13.416016 9L8.1796875 9L5 24.900391L5 27L27 27L27 24.900391L23.820312 9L23 9L18.583984 9C18.721014 8.6579861 19 8.3883477 19 8C19 6.3550302 17.64497 5 16 5 z M 16 7C16.56503 7 17 7.4349698 17 8C17 8.5650302 16.56503 9 16 9C15.43497 9 15 8.5650302 15 8C15 7.4349698 15.43497 7 16 7 z M 9.8203125 11L16 11L22.179688 11L24.980469 25L7.0195312 25L9.8203125 11 z M 11 14L11 22L15 22L15 20L13 20L13 14L11 14 z M 16 14L16 22L18.5 22C19.480869 22 20.173964 21.332692 20.582031 20.5L21 20.5L21 19.5C21 18.91771 20.713522 18.427445 20.373047 18C20.486539 17.857518 20.501282 17.664775 20.582031 17.5L21 17.5L21 16.5C21 15.130937 19.869063 14 18.5 14L16 14 z M 18 16L18.5 16C18.786937 16 19 16.213063 19 16.5C19 16.786937 18.786937 17 18.5 17L18 17L18 16 z M 18 19L18.5 19C18.786937 19 19 19.213063 19 19.5C19 19.786937 18.786937 20 18.5 20L18 20L18 19 z" />
</svg>