<?xml version="1.0" encoding="utf-8"?>
<svg xmlns="http://www.w3.org/2000/svg" viewBox="0 0 50 50" width="500" height="500">
  <path d="M25 2C12.309534 2 2 12.309534 2 25 A 1.0001 1.0001 0 1 0 4 25C4 13.390466 13.390466 4 25 4C32.140358 4 38.427924 7.5627554 42.222656 13L37 13 A 1.0001 1.0001 0 1 0 37 15L46 15L46 6 A 1.0001 1.0001 0 0 0 44.984375 4.9863281 A 1.0001 1.0001 0 0 0 44 6L44 12.052734C39.859137 5.9863595 32.891564 2 25 2 z M 22 10C21.448 10 21 10.448 21 11L21 13L17 13L17 23.832031 A 1.0001 1.0001 0 0 0 16.986328 24.015625 A 1.0001 1.0001 0 0 0 17 24.158203L17 37L21 37L21 39C21 39.552 21.448 40 22 40C22.552 40 23 39.552 23 39L23 37L25 37L25 39C25 39.552 25.448 40 26 40C26.552 40 27 39.552 27 39L27 37L28 37C31.854334 37 35 33.854334 35 30C35 27.121304 33.242168 24.643092 30.748047 23.570312C32.089996 22.467874 33 20.863039 33 19C33 15.698375 30.301625 13 27 13L27 11C27 10.448 26.552 10 26 10C25.448 10 25 10.448 25 11L25 13L23 13L23 11C23 10.448 22.552 10 22 10 z M 19 15L27 15C29.220375 15 31 16.779625 31 19C31 21.220375 29.220375 23 27 23L19 23L19 15 z M 46.984375 23.986328 A 1.0001 1.0001 0 0 0 46 25C46 36.609534 36.609534 46 25 46C17.859642 46 11.572076 42.437245 7.7773438 37L13 37 A 1.0001 1.0001 0 1 0 13 35L4 35L4 44 A 1.0001 1.0001 0 1 0 6 44L6 37.947266C10.140863 44.01364 17.108436 48 25 48C37.690466 48 48 37.690466 48 25 A 1.0001 1.0001 0 0 0 46.984375 23.986328 z M 19 25L27 25L28 25C30.773666 25 33 27.226334 33 30C33 32.773666 30.773666 35 28 35L19 35L19 25 z" />
</svg>