<?xml version="1.0" encoding="utf-8"?>
<svg xmlns="http://www.w3.org/2000/svg" viewBox="0 0 48 48" width="256" height="256">
  <defs>
    <linearGradient id="6~xQ~LTZYwBefWiZPoC92b" x1="2" x2="46" y1="24" y2="24" gradientUnits="userSpaceOnUse">
      <stop offset=".04" stop-color="#d5dff5" stop-opacity="0" />
      <stop offset=".09" stop-color="#d5dff5" stop-opacity=".13" />
      <stop offset=".12" stop-color="#d5dff5" stop-opacity=".2" />
      <stop offset=".15" stop-color="#d5dff5" stop-opacity=".3" />
      <stop offset=".2" stop-color="#d5dff5" stop-opacity=".55" />
      <stop offset=".24" stop-color="#d5dff5" stop-opacity=".8" />
      <stop offset=".27" stop-color="#d5dff5" stop-opacity=".7" />
      <stop offset=".32" stop-color="#d5dff5" stop-opacity=".45" />
      <stop offset=".36" stop-color="#d5dff5" stop-opacity=".2" />
      <stop offset=".42" stop-color="#d5dff5" stop-opacity=".1" />
      <stop offset=".47" stop-color="#d5dff5" stop-opacity="0" />
      <stop offset=".63" stop-color="#bbc9ec" stop-opacity="0" />
      <stop offset=".64" stop-color="#bbc9ec" stop-opacity=".09" />
      <stop offset=".68" stop-color="#bcc9eb" stop-opacity=".31" />
      <stop offset=".71" stop-color="#bcc9eb" stop-opacity=".47" />
      <stop offset=".73" stop-color="#bcc9eb" stop-opacity=".56" />
      <stop offset=".75" stop-color="#bcc9eb" stop-opacity=".6" />
      <stop offset=".76" stop-color="#bcc9eb" stop-opacity=".56" />
      <stop offset=".79" stop-color="#bcc9eb" stop-opacity=".45" />
      <stop offset=".82" stop-color="#bcc9eb" stop-opacity=".26" />
      <stop offset=".86" stop-color="#bcc9eb" stop-opacity=".01" />
      <stop offset=".87" stop-color="#bcc9eb" stop-opacity="0" />
    </linearGradient>
    <linearGradient id="6~xQ~LTZYwBefWiZPoC92c" x1="2" x2="46" y1="24" y2="24" gradientUnits="userSpaceOnUse">
      <stop offset="0" stop-color="#000b24" />
      <stop offset=".06" stop-color="#000b24" stop-opacity=".69" />
      <stop offset=".15" stop-color="#000b24" stop-opacity="0" />
      <stop offset=".4" stop-color="#000b24" stop-opacity=".02" />
      <stop offset=".4" stop-color="#000b24" stop-opacity=".03" />
      <stop offset=".47" stop-color="#000b24" stop-opacity=".45" />
      <stop offset=".52" stop-color="#000b24" stop-opacity=".6" />
      <stop offset=".56" stop-color="#000b24" stop-opacity=".48" />
      <stop offset=".72" stop-color="#000b24" stop-opacity=".02" />
      <stop offset=".86" stop-color="#000b24" stop-opacity=".02" />
      <stop offset="1" stop-color="#000512" stop-opacity=".9" />
    </linearGradient>
    <clipPath id="6~xQ~LTZYwBefWiZPoC92a">
      <path fill="none" d="M2,11.38v6.25c8.56-2.85,17.11-.6,25.67.76v6.26L24,24C16.67,18.58,9.33,13.1,2,11.38Zm22,.14a90.12,90.12,0,0,0-11-1.47v14.6A29.48,29.48,0,0,0,2,26V23.89C9.33,17.27,16.67,14.41,24,11.52Z" />
    </clipPath>
  </defs>
  <g data-name="Australia">
    <path fill="#00008b" d="M46,11.48v25c-14.67,5.12-29.33-5-44-.11v-25c.45-.15.91-.29,1.36-.4s.73-.2,1.1-.28A29.87,29.87,0,0,1,11.17,10h.36a2.32,2.32,0,0,1,.37,0h.57l.53,0c.37,0,.73,0,1.1.06h.14a5.9,5.9,0,0,1,.59.06c2.24.18,4.47.53,6.7.9l.7.12,1.75.31h0l1.43.24.4.07c1.22.21,2.45.41,3.67.58.61.09,1.22.17,1.83.23h0C36.22,13.2,41.11,13.19,46,11.48Z" />
    <path d="M10.82,15h0c-.49-.27-1-.54-1.47-.78A31.6,31.6,0,0,0,2,11.37l5.25,3,1.23.71,1.39.8.65.37,1.22.7c.43-.23.84-.46,1.26-.67C12.27,15.85,11.55,15.41,10.82,15Zm5.86,3.72c-.49-.35-1-.68-1.46-1h0c-.35-.24-.69-.46-1-.68L13,17.7l1.1.63.73.42L24,24C21.56,22.22,19.11,20.4,16.68,18.72ZM11.74,17l-.94.53h0l-1.47.89A50.52,50.52,0,0,0,2,23.89l8-4.48,1.2-.67.73-.42.77-.43L13,17.7Zm4.92-2.42c-.49.21-1,.43-1.47.67h0c-.73.34-1.45.7-2.18,1.08.39.24.78.48,1.17.74L17,15.42l1.21-.68L24,11.52C21.54,12.48,19.1,13.44,16.66,14.55Z" />
    <path fill="#fff" d="M24,22.62l.49.37L24,24l-.49,1c-.67-.48-1.32-1-2-1.45-2.23-1.66-4.46-3.27-6.7-4.73-.24-.16-.48-.32-.73-.47s-.73-.48-1.1-.7a2.68,2.68,0,0,0-.33.18l-.77.41c-.25.13-.49.27-.73.41-.41.22-.81.45-1.2.7a48,48,0,0,0-5.5,3.79h0c-.65.52-1.31,1.06-2,1.64-.16-.33-.33-.65-.49-1v-1.4a47.51,47.51,0,0,1,4.87-3.88c.48-.35,1-.68,1.46-1,.74-.48,1.46-.92,2.19-1.35h0l-.67-.36c-.51-.28-1-.54-1.53-.79s-1-.46-1.46-.68A28.4,28.4,0,0,0,2,12.77v-1.4c.45-.15.91-.29,1.36-.4s.73-.2,1.1-.28a40,40,0,0,1,6.71,3.13l.73.43c.37.21.73.44,1.1.66l1.1-.55.73-.37c2.24-1.07,4.47-2,6.7-2.9l.7.12,1.77.3h0c.16.41.33.8.49,1.21l-.49.19c-1.63.64-3.25,1.28-4.88,2-.48.2-1,.4-1.45.63-.75.3-1.48.64-2.21,1,.73.48,1.46,1,2.21,1.51l1.46,1C20.76,20.22,22.38,21.42,24,22.62Z" />
    <g clip-path="url(#6~xQ~LTZYwBefWiZPoC92a)">
      <path fill="red" d="M23.67,24.72c-3.56-2.65-7.11-5.28-10.67-7.48A51.57,51.57,0,0,0,2.33,24.53l-.66-1.28a51.11,51.11,0,0,1,9.69-7,34.44,34.44,0,0,0-9.69-4l.66-1.71A38.57,38.57,0,0,1,13,15.37a114.73,114.73,0,0,1,10.67-4.66l.66,1.61c-3.23,1.27-6.46,2.53-9.69,4.1,3.23,2.1,6.46,4.52,9.69,6.92Z" />
    </g>
    <path fill="#fff" d="M27.67,16.31v4.17L24,19.86c-1.62-.28-3.24-.56-4.87-.81-.81-.13-1.64-.24-2.45-.33-.62-.08-1.23-.14-1.85-.2v6.25l-.73-.05c-.73-.07-1.47-.11-2.2-.11h-.73V18.34c-.62,0-1.23,0-1.85.05-.81,0-1.64.1-2.45.22A25,25,0,0,0,2,19.72V15.54a26.44,26.44,0,0,1,4.88-1.11l.37,0c.7-.09,1.4-.14,2.09-.17s1.22-.05,1.83-.05V10h.73l.57,0c.54,0,1.08,0,1.63.08h.14l.59,0v4.17c.61.06,1.22.12,1.83.2s1.06.13,1.59.19l.87.14c1.63.23,3.26.52,4.88.8C25.22,15.9,26.45,16.11,27.67,16.31Z" />
    <path fill="red" d="M14.1,24.71c-.73-.05-1.47-.09-2.2-.1V17.52A28.69,28.69,0,0,0,2,18.88v-2.5A28.94,28.94,0,0,1,11.9,15V10c.73,0,1.47.05,2.2.11v5c4.52.33,9,1.3,13.57,2v2.5c-4.53-.72-9-1.68-13.57-2Z" />
    <path fill="#00008b" d="M31.33,12.64V29.33c-5.3-.61-10.6-1.89-15.91-2.41l-.43,0-1.52-.12-.94-.05-1.51,0h-.45A27.54,27.54,0,0,0,2,28.06V23.89a21.94,21.94,0,0,1,2.46-.68h0a30.37,30.37,0,0,1,6.7-.69c.24,0,.48,0,.73,0,.73,0,1.47,0,2.2.11.25,0,.49,0,.73.06,2.24.19,4.47.52,6.7.91.83.13,1.64.28,2.47.42V11.51l1.43.25.4.07c1.22.21,2.45.41,3.67.58C30.11,12.49,30.72,12.58,31.33,12.64Z" />
    <path fill="#fff" d="M13,25.06c.21.76.42,1.53.64,2.29.64-.24,1.29-.46,1.94-.68-.38.62-.77,1.24-1.15,1.87.6.45,1.19.91,1.79,1.38-.69,0-1.38,0-2.07,0,.09.78.19,1.57.28,2.36L13,30.48c-.48.55-.95,1.11-1.43,1.67.09-.78.19-1.56.28-2.33-.69-.09-1.38-.15-2.07-.2.6-.42,1.19-.83,1.79-1.22l-1.15-2c.65.27,1.3.56,1.94.86C12.58,26.54,12.79,25.8,13,25.06Z" />
    <path fill="#fff" d="M35,32l.3,1.09.93-.38-.55.93.85.58-1,.09.13,1.11c-.23-.27-.45-.55-.68-.83l-.68.78.13-1.11-1-.16.85-.52-.55-1,.93.45Z" />
    <path fill="#fff" d="M29.5,21.57l.3,1.11.93-.27-.55.86L31,24l-1,0,.13,1.13-.68-.91-.68.72.13-1.1-1-.24.85-.45-.55-1,.93.54Z" />
    <path fill="#fff" d="M35,15.32l.3,1.09.93-.38-.55.93.85.58-1,.09.13,1.11c-.23-.27-.45-.55-.68-.83l-.68.78.13-1.11-1-.16.85-.52-.55-1,.93.45Z" />
    <path fill="#fff" d="M39.89,20.31l.3,1,.93-.52-.55,1,.85.46-1,.23c0,.37.1.74.14,1.1-.23-.24-.45-.49-.68-.74l-.68.88.13-1.13c-.33,0-.65,0-1,0l.85-.63-.55-.9q.47.18.93.33Z" />
    <path fill="#fff" d="M37.2,25.48l.24.66.63,0-.48.48.15.69L37.2,27l-.54.38.15-.7-.48-.46.63-.06Z" />
    <path fill="url(#6~xQ~LTZYwBefWiZPoC92b)" d="M46,11.48v25c-14.67,5.12-29.33-5-44-.11v-25c.45-.15.91-.29,1.36-.4s.73-.2,1.1-.28A29.87,29.87,0,0,1,11.17,10h.73l.4,0h.17l.53,0c.37,0,.73,0,1.1.06h.14l.59,0h0c2.24.18,4.47.53,6.7.9l.7.12,1.77.3,1.43.25.4.07c1.22.21,2.45.41,3.67.58.61.08,1.22.17,1.83.23h0C36.22,13.2,41.11,13.19,46,11.48Z" opacity=".5" />
    <path fill="url(#6~xQ~LTZYwBefWiZPoC92c)" d="M46,11.48v25c-14.67,5.11-29.33-5-44-.11v-25c.45-.15.91-.29,1.36-.4l1.1-.28A29.87,29.87,0,0,1,11.17,10h.36a2.32,2.32,0,0,1,.37,0h.57l.53,0,1.1.06h.14a5.9,5.9,0,0,1,.59.06c2.24.18,4.47.53,6.7.9l.7.12,1.75.31h0l1.43.24.4.07c1.22.21,2.45.41,3.67.58.61.09,1.22.17,1.83.23h0C36.22,13.2,41.11,13.19,46,11.48Z" opacity=".7" />
  </g>
</svg>