<?xml version="1.0" encoding="utf-8"?>
<svg xmlns="http://www.w3.org/2000/svg" width="256" height="256" viewBox="0 0 48 48">
  <path fill="#DC2F27" d="M2,11.449c14.667-5.02,29.333,5.02,44,0c0,8.367,0,16.734,0,25.102c-14.667,5.02-29.333-5.02-44,0C2,28.184,2,19.816,2,11.449z" />
  <path fill="#FEDC00" d="M13.558,13.759c0.156,0.269,0.312,0.539,0.467,0.81c-0.199,0.216-0.398,0.434-0.596,0.653 c0.295-0.053,0.59-0.102,0.885-0.149c0.156,0.272,0.311,0.544,0.467,0.818c0.027-0.301,0.053-0.601,0.08-0.902 c0.295-0.044,0.59-0.085,0.885-0.124c-0.279-0.146-0.557-0.291-0.836-0.433c0.026-0.301,0.053-0.601,0.08-0.902 c-0.199,0.212-0.397,0.426-0.596,0.641C14.115,14.03,13.837,13.893,13.558,13.759z" />
  <path fill="#FEDC00" d="M8.251,14.653c-0.28,0.893-0.561,1.79-0.841,2.691c-0.909,0.11-1.817,0.263-2.726,0.467 c0.735,0.371,1.47,0.775,2.204,1.209c-0.281,0.906-0.561,1.817-0.842,2.732c0.735-0.661,1.47-1.292,2.205-1.895 c0.735,0.468,1.469,0.963,2.204,1.482c-0.281-0.86-0.561-1.717-0.842-2.571c0.735-0.572,1.469-1.119,2.204-1.645 C10.909,17.111,10,17.131,9.092,17.19C8.812,16.34,8.531,15.495,8.251,14.653z" />
  <path fill="#FEDC00" d="M16.451,16.211c0.043,0.305,0.086,0.611,0.129,0.917 c-0.272,0.103-0.544,0.208-0.815,0.315c0.298,0.082,0.596,0.166,0.895,0.252c0.043,0.306,0.086,0.611,0.129,0.917 c0.142-0.252,0.283-0.504,0.425-0.755c0.298,0.088,0.596,0.179,0.895,0.271c-0.211-0.246-0.422-0.492-0.633-0.736 c0.141-0.251,0.283-0.501,0.424-0.752c-0.272,0.098-0.543,0.198-0.815,0.299C16.872,16.695,16.662,16.453,16.451,16.211z" />
  <path fill="#FEDC00" d="M14.942,22.291c-0.189,0.222-0.378,0.444-0.567,0.668 c-0.283-0.128-0.567-0.253-0.85-0.376c0.166,0.263,0.333,0.527,0.499,0.792c-0.189,0.225-0.378,0.451-0.567,0.678 c0.292-0.065,0.584-0.127,0.876-0.186c0.166,0.266,0.333,0.532,0.499,0.8c0.014-0.302,0.028-0.605,0.042-0.907 c0.292-0.056,0.584-0.11,0.876-0.162c-0.283-0.135-0.566-0.268-0.849-0.399C14.914,22.896,14.928,22.594,14.942,22.291z" />
  <path fill="#FEDC00" d="M16.956,19.907c-0.083,0.282-0.166,0.565-0.249,0.848 c-0.303-0.024-0.605-0.046-0.908-0.065c0.251,0.195,0.502,0.391,0.754,0.589c-0.083,0.283-0.166,0.566-0.249,0.849 c0.238-0.161,0.477-0.322,0.715-0.481c0.251,0.2,0.502,0.401,0.753,0.603c-0.104-0.299-0.208-0.598-0.311-0.896 c0.238-0.158,0.477-0.314,0.715-0.469c-0.303-0.03-0.605-0.058-0.908-0.084C17.164,20.502,17.06,20.204,16.956,19.907z" />
  <linearGradient id="XrgI7h8OMl8LlqMkWgvJSa" x1="2" x2="46" y1="26" y2="26" gradientTransform="matrix(1 0 0 -1 0 50)" gradientUnits="userSpaceOnUse">
    <stop offset=".002" stop-color="#e93b52" stop-opacity="0" />
    <stop offset=".006" stop-color="#e93c53" stop-opacity=".02" />
    <stop offset=".149" stop-color="#f7677a" stop-opacity=".668" />
    <stop offset=".222" stop-color="#fc7789" />
    <stop offset=".325" stop-color="#f7697c" stop-opacity=".5" />
    <stop offset=".416" stop-color="#ea3d54" stop-opacity=".013" />
    <stop offset=".42" stop-color="#e93b52" stop-opacity="0" />
    <stop offset=".611" stop-color="#e98e99" stop-opacity="0" />
    <stop offset=".788" stop-color="#e96e7c" />
    <stop offset=".948" stop-color="#e98591" stop-opacity=".243" />
    <stop offset="1" stop-color="#e98e99" stop-opacity="0" />
  </linearGradient>
  <path fill="url(#XrgI7h8OMl8LlqMkWgvJSa)" d="M2,11.449c14.667-5.02,29.333,5.02,44,0c0,8.367,0,16.734,0,25.102c-14.667,5.02-29.333-5.02-44,0C2,28.184,2,19.816,2,11.449z" opacity=".3" />
  <linearGradient id="XrgI7h8OMl8LlqMkWgvJSb" x1="2" x2="46" y1="26" y2="26" gradientTransform="matrix(1 0 0 -1 0 50)" gradientUnits="userSpaceOnUse">
    <stop offset=".004" stop-opacity=".8" />
    <stop offset=".052" stop-color="#00040e" stop-opacity=".59" />
    <stop offset=".129" stop-color="#00091e" stop-opacity=".256" />
    <stop offset=".188" stop-color="#000b24" stop-opacity="0" />
    <stop offset=".359" stop-color="#000b24" stop-opacity=".018" />
    <stop offset=".396" stop-color="#000718" stop-opacity=".105" />
    <stop offset=".469" stop-color="#000206" stop-opacity=".276" />
    <stop offset=".522" stop-opacity=".4" />
    <stop offset=".597" stop-color="#00030b" stop-opacity=".251" />
    <stop offset=".715" stop-color="#000b24" stop-opacity=".018" />
    <stop offset=".848" stop-color="#000b24" stop-opacity=".018" />
    <stop offset=".897" stop-color="#00091e" stop-opacity=".205" />
    <stop offset=".963" stop-color="#00040d" stop-opacity=".458" />
    <stop offset="1" stop-opacity=".6" />
  </linearGradient>
  <path fill="url(#XrgI7h8OMl8LlqMkWgvJSb)" d="M2,11.449c14.667-5.02,29.333,5.02,44,0c0,8.367,0,16.734,0,25.102c-14.667,5.02-29.333-5.02-44,0C2,28.184,2,19.816,2,11.449z" opacity=".65" />
</svg>