<?xml version="1.0" encoding="utf-8"?>
<svg xmlns="http://www.w3.org/2000/svg" width="256" height="256" viewBox="0 0 48 48">
  <path fill="#039" d="M2,11.4c14.7-5,29.3,5,44,0c0,8.4,0,16.7,0,25.1c-14.7,5-29.3-5-44,0C2,28.2,2,19.8,2,11.4z" />
  <polygon fill="#fc0" points="24,13.6 23.7,14.6 22.6,14.6 23.5,15.3 23.1,16.3 24,15.7 24.9,16.3 24.5,15.3 25.4,14.6 24.3,14.6" />
  <polygon fill="#fc0" points="24.3,32.2 24,31.2 23.7,32.2 22.6,32.2 23.5,32.8 23.1,33.8 24,33.2 24.9,33.8 24.5,32.8 25.4,32.2" />
  <polygon fill="#fc0" points="15.1,24.4 16,25 15.6,24 16.5,23.4 15.4,23.4 15.1,22.4 14.8,23.4 13.7,23.4 14.6,24 14.2,25" />
  <polygon fill="#fc0" points="19.6,14.8 19.2,15.8 18.1,15.8 19,16.4 18.7,17.5 19.6,16.8 20.4,17.5 20.1,16.4 21,15.8 19.9,15.8" />
  <polygon fill="#fc0" points="16.3,18 16,19 14.9,19 15.8,19.6 15.4,20.7 16.3,20 17.2,20.7 16.8,19.6 17.7,19 16.6,19" />
  <polygon fill="#fc0" points="16.6,27.8 16.3,26.8 16,27.8 14.9,27.8 15.8,28.4 15.4,29.4 16.3,28.8 17.2,29.4 16.8,28.4 17.7,27.8" />
  <polygon fill="#fc0" points="19.9,31 19.6,30 19.2,31 18.1,31 19,31.6 18.7,32.6 19.6,32 20.4,32.6 20.1,31.6 21,31" />
  <polygon fill="#fc0" points="34.3,23.4 33.2,23.4 32.9,22.4 32.6,23.4 31.5,23.4 32.4,24 32,25 32.9,24.4 33.8,25 33.4,24" />
  <polygon fill="#fc0" points="28.4,14.8 28.1,15.8 27,15.8 27.9,16.4 27.6,17.5 28.4,16.8 29.3,17.5 29,16.4 29.9,15.8 28.8,15.8" />
  <polygon fill="#fc0" points="31.2,19.6 30.8,20.7 31.7,20 32.6,20.7 32.2,19.6 33.1,19 32,19 31.7,18 31.4,19 30.3,19" />
  <polygon fill="#fc0" points="32,27.8 31.7,26.8 31.4,27.8 30.3,27.8 31.2,28.4 30.8,29.4 31.7,28.8 32.6,29.4 32.2,28.4 33.1,27.8" />
  <polygon fill="#fc0" points="28.8,31 28.4,30 28.1,31 27,31 27.9,31.6 27.6,32.6 28.4,32 29.3,32.6 29,31.6 29.9,31" />
  <linearGradient id="Ufe8usX63oKEuW5HGcmxqa" x1="2" x2="46" y1="26" y2="26" gradientTransform="matrix(1 0 0 -1 0 50)" gradientUnits="userSpaceOnUse">
    <stop offset="0" stop-color="#fff" stop-opacity="0" />
    <stop offset=".207" stop-color="#fff" stop-opacity=".6" />
    <stop offset=".372" stop-color="#fff" stop-opacity="0" />
    <stop offset=".587" stop-color="#fff" stop-opacity="0" />
    <stop offset=".794" stop-color="#fff" stop-opacity=".5" />
    <stop offset=".983" stop-color="#fff" stop-opacity=".032" />
    <stop offset=".996" stop-color="#fff" stop-opacity="0" />
  </linearGradient>
  <path fill="url(#Ufe8usX63oKEuW5HGcmxqa)" d="M2,11.4c14.7-5,29.3,5,44,0c0,8.4,0,16.7,0,25.1c-14.7,5-29.3-5-44,0C2,28.2,2,19.8,2,11.4z" opacity=".3" />
  <linearGradient id="Ufe8usX63oKEuW5HGcmxqb" x1="2" x2="46" y1="26" y2="26" gradientTransform="matrix(1 0 0 -1 0 50)" gradientUnits="userSpaceOnUse">
    <stop offset=".004" stop-opacity=".6" />
    <stop offset=".052" stop-color="#00040e" stop-opacity=".442" />
    <stop offset=".129" stop-color="#00091e" stop-opacity=".192" />
    <stop offset=".188" stop-color="#000b24" stop-opacity="0" />
    <stop offset=".377" stop-color="#000b24" stop-opacity=".018" />
    <stop offset=".417" stop-color="#000716" stop-opacity=".118" />
    <stop offset=".482" stop-color="#000206" stop-opacity=".278" />
    <stop offset=".531" stop-opacity=".4" />
    <stop offset=".588" stop-color="#000105" stop-opacity=".277" />
    <stop offset=".653" stop-color="#000612" stop-opacity=".137" />
    <stop offset=".708" stop-color="#000b24" stop-opacity=".018" />
    <stop offset=".83" stop-color="#000b24" stop-opacity=".018" />
    <stop offset=".885" stop-color="#00091e" stop-opacity=".205" />
    <stop offset=".958" stop-color="#00040d" stop-opacity=".458" />
    <stop offset="1" stop-opacity=".6" />
  </linearGradient>
  <path fill="url(#Ufe8usX63oKEuW5HGcmxqb)" d="M2,11.4c14.7-5,29.3,5,44,0c0,8.4,0,16.7,0,25.1c-14.7,5-29.3-5-44,0C2,28.2,2,19.8,2,11.4z" opacity=".9" />
</svg>