<?xml version="1.0" encoding="utf-8"?>
<svg xmlns="http://www.w3.org/2000/svg" viewBox="0 0 48 48" width="256" height="256">
  <path fill="#012169" d="M44.064,13.043c0,0.935,1.936,1.212,1.936,1.212c0,1.854,0,3.708,0,5.562c0,0-1.426,3.086-1.426,4.481c0,1.394,1.426,3.886,1.426,3.886c0,1.853,0,3.706,0,5.559c0,0-1.809,0.959-1.809,1.895c-1.64,0.561-3.111,2.074-3.111,2.074c-4.471,0.618-8.942,0.15-13.413-0.551c0,0-2.445-1.718-3.667-1.927c-1.222-0.209-3.666,0.707-3.666,0.707c-4.472-0.702-8.944-1.17-13.416-0.551c0,0-2.162-0.547-3.801,0.014C3.117,34.468,2,33.743,2,33.743c0-1.853,0-3.706,0-5.559c0,0,0.957-2.945,0.957-4.439C2.957,22.45,2,19.817,2,19.817c0-2.789,0-5.579,0-8.368c6.111-2.092,12.222-1.569,18.333-0.61c0,0,2.211,1.654,3.433,1.863c1.222,0.209,3.9-0.643,3.9-0.643c4.472,0.702,8.944,1.17,13.416,0.551C41.082,12.61,42.424,13.604,44.064,13.043z" />
  <path fill="#fff" d="M46,11.449c0,0.935,0,1.871,0,2.806c-3.249,2.966-6.498,5.192-9.747,7.007c-2.444,1.365-4.889,2.498-7.333,3.537c2.444,1.75,4.889,3.407,7.333,4.83c3.249,1.892,6.498,3.373,9.747,4.114c0,0.935,0,1.871,0,2.806c-1.64,0.561-3.28,0.934-4.92,1.161c-4.471-1.932-8.943-4.951-13.414-8.204c-1.222-0.889-2.444-1.795-3.667-2.702c-1.222,0.488-2.444,0.976-3.667,1.482c-4.471,1.849-8.943,3.932-13.414,7.102c-1.64,0.227-3.28,0.6-4.92,1.161c0-0.935,0-1.871,0-2.806c3.249-2.966,6.498-5.192,9.747-7.007c2.444-1.365,4.889-2.498,7.333-3.537c-2.444-1.75-4.889-3.407-7.333-4.83C8.498,16.478,5.249,14.997,2,14.256c0-0.935,0-1.871,0-2.806c1.64-0.561,3.28-0.934,4.92-1.161c4.471,1.932,8.943,4.951,13.414,8.204c1.222,0.889,2.444,1.795,3.667,2.702c1.222-0.488,2.444-0.976,3.667-1.482c4.471-1.849,8.943-3.932,13.414-7.102C42.72,12.384,44.36,12.011,46,11.449z" />
  <path fill="#c8102e" d="M27.279,24.549c2.444,1.785,4.889,3.508,7.333,5.028c3.796,2.362,7.591,4.236,11.387,5.103c0,0.624,0,1.247,0,1.871c-1.093,0.374-2.187,0.665-3.28,0.884c-4.889-1.808-9.778-5.04-14.666-8.581c-0.618-0.448-1.236-0.9-1.854-1.355c-0.733-0.54-1.467-1.084-2.2-1.628c-0.733,0.293-1.467,0.586-2.2,0.882c-0.618,0.25-1.236,0.503-1.854,0.76c-4.889,2.038-9.778,4.384-14.666,8.153c-1.093,0.219-2.187,0.51-3.28,0.884c0-0.624,0-1.247,0-1.871c3.796-3.465,7.591-5.921,11.387-7.89c2.444-1.268,4.889-2.335,7.333-3.339c-2.444-1.785-4.889-3.508-7.333-5.028C9.591,16.061,5.796,14.186,2,13.32c0-0.624,0-1.247,0-1.871c1.093-0.374,2.187-0.665,3.28-0.884c4.889,1.808,9.778,5.04,14.666,8.581c0.618,0.448,1.236,0.9,1.854,1.355c0.733,0.54,1.467,1.084,2.2,1.628c0.733-0.293,1.467-0.586,2.2-0.882c0.618-0.25,1.236-0.503,1.854-0.76c4.889-2.038,9.778-4.384,14.666-8.153c1.093-0.219,2.187-0.51,3.28-0.884c0,0.624,0,1.247,0,1.871c-3.796,3.465-7.591,5.921-11.387,7.89C32.168,22.478,29.724,23.545,27.279,24.549z" />
  <path fill="#fff" d="M27.667,37.161c-2.444-0.384-4.889-0.837-7.333-1.22c0-2.789,0-5.578,0-8.367C14.222,26.615,8.111,26.092,2,28.184c0,0,0-5.578,0-8.367c6.111-2.092,12.222-1.569,18.333-0.61c0-2.789,0-5.578,0-8.367c2.444,0.384,4.889,0.837,7.333,1.22c0,2.789,0,5.578,0,8.367c6.111,0.959,12.222,1.482,18.333-0.61c0,2.789,0,5.578,0,8.367c-6.111,2.092-12.222,1.569-18.333,0.61C27.667,31.583,27.667,34.372,27.667,37.161z" />
  <path fill="#c8102e" d="M26.2,36.924c-1.467-0.244-2.933-0.502-4.4-0.746c0-3.347,0-6.694,0-10.041C15.2,25.042,8.6,24.251,2,26.51c0-1.673,0-3.347,0-5.02c6.6-2.259,13.2-1.468,19.8-0.373c0-3.347,0-6.694,0-10.041c1.467,0.244,2.933,0.502,4.4,0.746c0,3.347,0,6.694,0,10.041c6.6,1.096,13.2,1.886,19.8-0.373c0,1.673,0,3.347,0,5.02c-6.6,2.259-13.2,1.468-19.8,0.373C26.2,30.23,26.2,33.577,26.2,36.924z" />
  <linearGradient id="c_xyCDeerQt140JTqCzuqa" x1="2" x2="46" y1="26" y2="26" gradientTransform="matrix(1 0 0 -1 0 50)" gradientUnits="userSpaceOnUse">
    <stop offset=".098" stop-color="#d5dff5" stop-opacity=".2" />
    <stop offset=".23" stop-color="#d5dff5" stop-opacity=".7" />
    <stop offset=".372" stop-color="#d5dff5" stop-opacity=".2" />
    <stop offset=".472" stop-color="#d5dff5" stop-opacity="0" />
    <stop offset=".563" stop-color="#eaebed" stop-opacity="0" />
    <stop offset=".57" stop-color="#ececec" stop-opacity="0" />
    <stop offset=".746" stop-color="#ebebeb" stop-opacity=".5" />
    <stop offset=".932" stop-color="#ebebeb" stop-opacity="0" />
  </linearGradient>
  <path fill="url(#c_xyCDeerQt140JTqCzuqa)" d="M46,11.449c0,8.367,0,16.734,0,25.102c-14.667,5.02-29.333-5.02-44,0c0-8.367,0-16.734,0-25.102C16.667,6.429,31.333,16.47,46,11.449z" opacity=".4" />
  <linearGradient id="c_xyCDeerQt140JTqCzuqb" x1="2" x2="46" y1="26" y2="26" gradientTransform="matrix(1 0 0 -1 0 50)" gradientUnits="userSpaceOnUse">
    <stop offset=".004" stop-color="#000b24" />
    <stop offset=".149" stop-color="#000b24" stop-opacity="0" />
    <stop offset=".396" stop-color="#000b24" stop-opacity=".018" />
    <stop offset=".545" stop-color="#000b24" stop-opacity=".4" />
    <stop offset=".715" stop-color="#000b24" stop-opacity=".018" />
    <stop offset=".864" stop-color="#000b24" stop-opacity=".018" />
    <stop offset=".873" stop-color="#000b23" stop-opacity=".079" />
    <stop offset="1" stop-color="#000512" stop-opacity=".9" />
  </linearGradient>
  <path fill="url(#c_xyCDeerQt140JTqCzuqb)" d="M46,11.449c0,8.367,0,16.734,0,25.102c-14.667,5.02-29.333-5.02-44,0c0-8.367,0-16.734,0-25.102C16.667,6.429,31.333,16.47,46,11.449z" opacity=".7" />
</svg>