<?xml version="1.0" encoding="utf-8"?>
<svg xmlns="http://www.w3.org/2000/svg" viewBox="0 0 48 48" width="256" height="256">
  <path fill="#f93" d="M2,11.449c14.667-5.02,29.333,5.02,44,0c0,8.367,0,16.734,0,25.101c-14.667,5.02-29.333-5.02-44,0C2,28.184,2,19.816,2,11.449z" />
  <path fill="#fff" d="M2,19.816c14.667-5.02,29.333,5.02,44,0c0,2.789,0,5.578,0,8.367c-14.667,5.02-29.333-5.02-44,0C2,25.395,2,22.605,2,19.816z" />
  <path fill="#128807" d="M2,28.184c14.667-5.02,29.333,5.02,44,0c0,2.789,0,5.578,0,8.367c-14.667,5.02-29.333-5.02-44,0C2,33.762,2,30.973,2,28.184z" />
  <path fill="#008" d="M24,20.653c-1.936-0.335-3.507,0.912-3.507,2.762c0,1.847,1.57,3.597,3.507,3.932c1.936,0.336,3.506-0.912,3.507-2.762C27.507,22.739,25.937,20.988,24,20.653z M25.987,26.569c-0.052-0.07-0.146-0.097-0.212-0.06c-0.066,0.038-0.079,0.124-0.03,0.197c-0.136,0.067-0.279,0.122-0.43,0.165c-0.034-0.078-0.122-0.128-0.199-0.11s-0.114,0.095-0.084,0.174c-0.155,0.026-0.315,0.04-0.48,0.041c-0.012-0.08-0.089-0.148-0.171-0.152c-0.083-0.004-0.141,0.058-0.132,0.138c-0.082-0.008-0.165-0.019-0.248-0.033c-0.084-0.015-0.166-0.031-0.248-0.052c0.009-0.077-0.049-0.159-0.132-0.183s-0.159,0.017-0.171,0.094c-0.165-0.057-0.325-0.125-0.48-0.204c0.03-0.069-0.007-0.159-0.084-0.203c-0.077-0.044-0.165-0.024-0.199,0.043c-0.15-0.094-0.294-0.197-0.43-0.31c0.049-0.056,0.036-0.148-0.03-0.207s-0.16-0.064-0.212-0.011c-0.063-0.061-0.124-0.126-0.183-0.191c-0.059-0.066-0.115-0.133-0.168-0.202c0.064-0.039,0.076-0.127,0.025-0.198c-0.051-0.072-0.145-0.099-0.212-0.064c-0.094-0.145-0.177-0.295-0.249-0.451c0.076-0.019,0.112-0.097,0.08-0.177c-0.032-0.079-0.12-0.128-0.197-0.112c-0.055-0.157-0.098-0.316-0.128-0.479c0.082,0.001,0.14-0.062,0.129-0.143s-0.086-0.148-0.168-0.154c-0.007-0.079-0.01-0.159-0.01-0.239s0.003-0.158,0.01-0.235c0.082,0.022,0.158-0.022,0.168-0.099c0.011-0.077-0.046-0.159-0.129-0.184c0.03-0.153,0.073-0.298,0.128-0.437c0.078,0.041,0.165,0.021,0.197-0.048s-0.004-0.159-0.08-0.203c0.071-0.131,0.155-0.256,0.249-0.37c0.067,0.057,0.161,0.061,0.212,0.006s0.039-0.147-0.025-0.207c0.107-0.103,0.225-0.196,0.351-0.277c0.052,0.071,0.146,0.097,0.212,0.06s0.079-0.125,0.03-0.197c0.136-0.067,0.279-0.122,0.43-0.165c0.034,0.078,0.122,0.128,0.199,0.11S23,21.145,22.97,21.066c0.155-0.027,0.315-0.04,0.48-0.041c0.012,0.08,0.089,0.148,0.171,0.152c0.083,0.004,0.141-0.058,0.132-0.138c0.082,0.008,0.165,0.019,0.248,0.033c0.084,0.014,0.166,0.032,0.248,0.052c-0.009,0.078,0.049,0.159,0.132,0.183c0.083,0.025,0.159-0.017,0.171-0.094c0.165,0.057,0.325,0.125,0.48,0.204c-0.03,0.069,0.007,0.159,0.084,0.203c0.077,0.044,0.165,0.024,0.199-0.043c0.15,0.093,0.294,0.198,0.43,0.31c-0.049,0.056-0.036,0.148,0.03,0.207s0.16,0.064,0.212,0.011c0.126,0.123,0.244,0.255,0.351,0.394c-0.064,0.039-0.076,0.127-0.025,0.198c0.051,0.072,0.145,0.099,0.212,0.064c0.094,0.145,0.177,0.296,0.249,0.451c-0.076,0.02-0.112,0.098-0.08,0.177s0.12,0.129,0.197,0.112c0.055,0.157,0.098,0.316,0.128,0.479c-0.082-0.001-0.14,0.062-0.129,0.143s0.086,0.148,0.168,0.154c0.007,0.079,0.01,0.159,0.01,0.239s-0.003,0.158-0.01,0.235c-0.083-0.022-0.157,0.022-0.168,0.099c-0.011,0.077,0.047,0.159,0.129,0.184c-0.03,0.152-0.073,0.299-0.128,0.437c-0.078-0.042-0.165-0.021-0.197,0.048s0.004,0.158,0.08,0.203c-0.072,0.132-0.155,0.255-0.249,0.37c-0.067-0.057-0.161-0.061-0.212-0.006s-0.039,0.146,0.025,0.207C26.23,26.394,26.113,26.487,25.987,26.569z" />
  <path fill="#008" d="M24.031,24.59c0.033,0.004,0.065,0.006,0.097,0.005c0.029,0.2,0.059,0.4,0.088,0.6c0.193,0.59,0.385,1.18,0.578,1.77c-0.125-0.596-0.25-1.191-0.375-1.787c-0.077-0.196-0.154-0.392-0.23-0.588c0.031-0.004,0.061-0.011,0.09-0.021c0.081,0.195,0.162,0.39,0.244,0.585c0.337,0.548,0.674,1.096,1.012,1.643c-0.276-0.571-0.553-1.142-0.829-1.713c-0.124-0.179-0.248-0.358-0.371-0.536c0.027-0.012,0.053-0.027,0.077-0.044c0.128,0.177,0.255,0.354,0.383,0.53c0.459,0.469,0.917,0.937,1.376,1.403c-0.409-0.506-0.818-1.013-1.227-1.52c-0.162-0.149-0.325-0.299-0.487-0.448c0.022-0.02,0.042-0.04,0.06-0.064c0.165,0.146,0.33,0.293,0.496,0.439c0.549,0.357,1.098,0.714,1.647,1.067c-0.514-0.406-1.028-0.814-1.542-1.223c-0.19-0.11-0.38-0.22-0.569-0.33c0.015-0.025,0.028-0.052,0.038-0.079c0.192,0.106,0.383,0.212,0.575,0.318c0.602,0.221,1.204,0.441,1.805,0.658c-0.584-0.278-1.167-0.56-1.751-0.843c-0.204-0.063-0.408-0.125-0.613-0.188c0.007-0.029,0.01-0.059,0.012-0.09c0.205,0.058,0.41,0.117,0.615,0.175c0.614,0.071,1.227,0.14,1.841,0.205c-0.614-0.132-1.227-0.268-1.841-0.406c-0.205-0.011-0.41-0.023-0.615-0.034c-0.002-0.032-0.005-0.063-0.012-0.094c0.204,0.007,0.408,0.014,0.613,0.02c0.584-0.085,1.167-0.171,1.751-0.261c-0.602,0.022-1.204,0.04-1.805,0.057c-0.191,0.041-0.383,0.081-0.575,0.122c-0.01-0.032-0.023-0.062-0.038-0.092c0.19-0.045,0.38-0.09,0.569-0.135c0.514-0.235,1.028-0.47,1.542-0.708c-0.549,0.174-1.098,0.345-1.647,0.516c-0.165,0.09-0.33,0.18-0.496,0.27c-0.018-0.029-0.038-0.057-0.06-0.084c0.162-0.094,0.325-0.188,0.487-0.282c0.409-0.368,0.818-0.737,1.227-1.107c-0.459,0.314-0.917,0.627-1.376,0.939c-0.128,0.133-0.255,0.266-0.383,0.4c-0.024-0.025-0.05-0.049-0.077-0.07c0.124-0.137,0.248-0.273,0.371-0.41c0.276-0.477,0.553-0.954,0.829-1.431c-0.337,0.434-0.674,0.867-1.012,1.3c-0.081,0.167-0.162,0.335-0.244,0.502c-0.029-0.019-0.059-0.036-0.09-0.051c0.077-0.17,0.154-0.339,0.23-0.509c0.125-0.553,0.25-1.106,0.375-1.659c-0.193,0.524-0.385,1.048-0.578,1.572c-0.029,0.19-0.059,0.38-0.088,0.57c-0.031-0.012-0.064-0.021-0.097-0.028c0.025-0.192,0.049-0.383,0.074-0.575c-0.035-0.591-0.07-1.183-0.105-1.775c-0.035,0.58-0.07,1.159-0.105,1.739c0.025,0.2,0.049,0.4,0.074,0.6c-0.033-0.004-0.065-0.006-0.097-0.005c-0.029-0.2-0.059-0.4-0.088-0.6c-0.193-0.59-0.385-1.18-0.578-1.77c0.125,0.596,0.25,1.191,0.375,1.787c0.077,0.196,0.154,0.392,0.23,0.588c-0.031,0.004-0.061,0.011-0.09,0.021c-0.081-0.195-0.162-0.39-0.244-0.585c-0.337-0.548-0.674-1.096-1.012-1.643c0.276,0.571,0.553,1.142,0.829,1.713c0.124,0.179,0.248,0.358,0.371,0.536c-0.027,0.012-0.053,0.027-0.077,0.044c-0.128-0.177-0.255-0.354-0.383-0.53c-0.459-0.469-0.917-0.937-1.376-1.403c0.409,0.506,0.818,1.013,1.227,1.52c0.162,0.149,0.325,0.299,0.487,0.448c-0.022,0.019-0.042,0.041-0.06,0.064c-0.165-0.146-0.33-0.293-0.496-0.439c-0.549-0.357-1.098-0.714-1.647-1.067c0.514,0.406,1.028,0.814,1.542,1.223c0.19,0.11,0.38,0.22,0.569,0.33c-0.015,0.025-0.027,0.051-0.038,0.079c-0.192-0.106-0.383-0.212-0.575-0.318c-0.602-0.221-1.204-0.441-1.805-0.658c0.584,0.278,1.167,0.56,1.751,0.843c0.204,0.063,0.408,0.125,0.613,0.188c-0.007,0.029-0.01,0.06-0.012,0.09c-0.205-0.058-0.41-0.117-0.615-0.175c-0.614-0.071-1.227-0.14-1.841-0.205c0.614,0.132,1.227,0.268,1.841,0.406c0.205,0.011,0.41,0.023,0.615,0.034c0.002,0.032,0.005,0.063,0.012,0.094c-0.204-0.007-0.408-0.014-0.613-0.02c-0.584,0.085-1.167,0.171-1.751,0.261c0.602-0.022,1.204-0.04,1.805-0.057c0.191-0.041,0.383-0.081,0.575-0.122c0.01,0.031,0.023,0.062,0.038,0.092c-0.19,0.045-0.38,0.09-0.569,0.135c-0.514,0.235-1.028,0.47-1.542,0.708c0.549-0.174,1.098-0.345,1.647-0.516c0.165-0.09,0.33-0.18,0.496-0.27c0.018,0.029,0.038,0.057,0.06,0.084c-0.162,0.094-0.325,0.188-0.487,0.282c-0.409,0.368-0.818,0.737-1.227,1.107c0.459-0.314,0.917-0.627,1.376-0.939c0.128-0.133,0.255-0.266,0.383-0.4c0.024,0.025,0.05,0.049,0.077,0.07c-0.124,0.137-0.248,0.273-0.371,0.41c-0.276,0.477-0.553,0.954-0.829,1.431c0.337-0.434,0.674-0.867,1.012-1.3c0.081-0.167,0.162-0.335,0.244-0.502c0.029,0.019,0.059,0.036,0.09,0.051c-0.077,0.17-0.154,0.339-0.23,0.509c-0.125,0.553-0.25,1.106-0.375,1.659c0.193-0.524,0.385-1.048,0.578-1.572c0.029-0.19,0.059-0.38,0.088-0.57c0.031,0.011,0.064,0.021,0.097,0.028c-0.025,0.192-0.049,0.383-0.074,0.575c0.035,0.591,0.07,1.183,0.105,1.775c0.035-0.58,0.07-1.159,0.105-1.739C24.081,24.989,24.056,24.789,24.031,24.59z" />
  <linearGradient id="JP~SB0JauhUnoaBWXovGLa" x1="2" x2="46" y1="26" y2="26" gradientTransform="matrix(1 0 0 -1 0 50)" gradientUnits="userSpaceOnUse">
    <stop offset="0" stop-color="#fff" stop-opacity="0" />
    <stop offset=".285" stop-color="#fff" stop-opacity=".71" />
    <stop offset=".441" stop-color="#fff" stop-opacity="0" />
    <stop offset=".56" stop-color="#fff" stop-opacity="0" />
    <stop offset=".789" stop-color="#fff" stop-opacity=".7" />
    <stop offset=".996" stop-color="#fff" stop-opacity="0" />
  </linearGradient>
  <path fill="url(#JP~SB0JauhUnoaBWXovGLa)" d="M2,11.449c14.667-5.02,29.333,5.02,44,0c0,8.367,0,16.734,0,25.101c-14.667,5.02-29.333-5.02-44,0C2,28.184,2,19.816,2,11.449z" opacity=".25" />
  <linearGradient id="JP~SB0JauhUnoaBWXovGLb" x1="2" x2="46" y1="26" y2="26" gradientTransform="matrix(1 0 0 -1 0 50)" gradientUnits="userSpaceOnUse">
    <stop offset=".004" stop-color="#300600" stop-opacity=".84" />
    <stop offset=".202" stop-color="#300600" stop-opacity="0" />
    <stop offset=".367" stop-color="#300600" stop-opacity="0" />
    <stop offset=".553" stop-color="#300600" stop-opacity=".5" />
    <stop offset=".749" stop-color="#300600" stop-opacity="0" />
    <stop offset=".847" stop-color="#300600" stop-opacity="0" />
    <stop offset="1" stop-color="#300600" stop-opacity=".8" />
  </linearGradient>
  <path fill="url(#JP~SB0JauhUnoaBWXovGLb)" d="M2,11.449c14.667-5.02,29.333,5.02,44,0c0,8.367,0,16.734,0,25.101c-14.667,5.02-29.333-5.02-44,0C2,28.184,2,19.816,2,11.449z" opacity=".83" />
</svg>