<?xml version="1.0" encoding="utf-8"?>
<svg xmlns="http://www.w3.org/2000/svg" xmlns:xlink="http://www.w3.org/1999/xlink" width="256" height="256" viewBox="0 0 48 48">
  <path fill="#012169" d="M2,11.334c14.667-4.803,29.333,5.307,44,0.167c0,8.333,0,16.666,0,24.999c-14.667,5.14-29.333-4.97-44-0.167C2,28,2,19.667,2,11.334z" />
  <defs>
    <path id="jLGtd0CXh_SFo9UOIMRrha" d="M2,11.334c7.333-2.401,14.667-1.075,22,0.21c0,3.686,0,7.371,0,11.057c-7.333-1.285-14.667-2.611-22-0.21 C2,18.705,2,15.02,2,11.334z" />
  </defs>
  <clipPath id="jLGtd0CXh_SFo9UOIMRrhb">
    <use xlink:href="#jLGtd0CXh_SFo9UOIMRrha" />
  </clipPath>
  <path fill="#FFF" d="M23.508,23.504C20.005,21.13,16.503,18.765,13,16.821 c-3.503,1.577-7.005,3.575-10.508,6.403c-0.328-0.559-0.656-1.111-0.984-1.656C4.519,19,7.53,17.075,10.54,15.531 c-3.011-1.482-6.022-2.583-9.032-3.041c0.328-0.774,0.656-1.541,0.984-2.3C5.995,10.881,9.497,12.405,13,14.349 c3.503-1.577,7.005-2.734,10.508-3.88c0.328,0.717,0.656,1.434,0.984,2.15c-3.011,0.987-6.022,1.953-9.032,3.159 c3.011,1.821,6.021,3.881,9.032,5.92C24.164,22.3,23.836,22.902,23.508,23.504z" clip-path="url(#jLGtd0CXh_SFo9UOIMRrhb)" />
  <defs>
    <path id="jLGtd0CXh_SFo9UOIMRrhc" d="M2,11.334c3.667,0.642,7.333,2.216,11,4.251c-3.667-0.192-7.333,0.077-11,1.277C2,15.02,2,13.177,2,11.334z M13,10.056c3.667,0.192,7.333,0.845,11,1.487c-3.667,1.201-7.333,2.391-11,4.041C13,13.742,13,11.899,13,10.056z M13,15.585 c3.667,0.192,7.333,0.845,11,1.487c0,1.843,0,3.686,0,5.529C20.333,20.116,16.667,17.62,13,15.585z M13,15.585 c0,1.843,0,3.686,0,5.529c-3.667-0.192-7.333,0.077-11,1.277C5.667,19.347,9.333,17.236,13,15.585z" />
  </defs>
  <clipPath id="jLGtd0CXh_SFo9UOIMRrhd">
    <use xlink:href="#jLGtd0CXh_SFo9UOIMRrhc" />
  </clipPath>
  <path fill="#C8102E" d="M23.672,23.203c-3.557-2.411-7.115-4.819-10.672-6.794 c-3.557,1.602-7.115,3.637-10.672,6.536c-0.219-0.371-0.437-0.739-0.656-1.104c3.229-2.73,6.459-4.726,9.688-6.31 c-3.229-1.662-6.459-2.912-9.688-3.428c0.219-0.515,0.437-1.026,0.656-1.534C5.885,11.246,9.443,12.787,13,14.761 c3.557-1.601,7.115-2.769,10.672-3.934c0.219,0.478,0.437,0.956,0.656,1.434c-3.229,1.058-6.459,2.098-9.688,3.44 c3.229,1.904,6.459,4.111,9.688,6.299C24.109,22.4,23.891,22.802,23.672,23.203z" clip-path="url(#jLGtd0CXh_SFo9UOIMRrhd)" />
  <path fill="#FFF" d="M14.833,21.246c-1.222-0.111-2.444-0.179-3.667-0.188c0-1.229,0-2.457,0-3.686C8.111,17.351,5.056,17.705,2,18.705c0-1.228,0-2.457,0-3.686c3.056-1.001,6.111-1.354,9.167-1.333c0-1.229,0-2.457,0-3.686c1.222,0.009,2.444,0.077,3.667,0.188c0,1.229,0,2.457,0,3.686c3.056,0.277,6.111,0.82,9.167,1.355c0,1.229,0,2.457,0,3.686c-3.056-0.535-6.111-1.078-9.167-1.355C14.833,18.789,14.833,20.017,14.833,21.246z" />
  <path fill="#C8102E" d="M14.1,21.185c-0.733-0.056-1.467-0.095-2.2-0.114c0-1.474,0-2.949,0-4.423c-3.3-0.086-6.6,0.24-9.9,1.321c0-0.737,0-1.475,0-2.212c3.3-1.081,6.6-1.406,9.9-1.321c0-1.474,0-2.949,0-4.423c0.733,0.019,1.467,0.058,2.2,0.114c0,1.474,0,2.949,0,4.423c3.3,0.252,6.6,0.838,9.9,1.416c0,0.737,0,1.474,0,2.212c-3.3-0.578-6.6-1.165-9.9-1.416C14.1,18.236,14.1,19.71,14.1,21.185z" />
  <path fill="#FFF" d="M35.636,20.504c0.343-0.242,0.686-0.488,1.029-0.739c-0.424,0.001-0.848-0.006-1.272-0.019c-0.131-0.41-0.262-0.819-0.393-1.23c-0.131,0.4-0.262,0.799-0.393,1.198c-0.424-0.021-0.848-0.049-1.272-0.082c0.343,0.277,0.686,0.551,1.029,0.82c-0.131,0.398-0.262,0.795-0.393,1.192c0.343-0.229,0.686-0.461,1.029-0.697c0.343,0.264,0.686,0.525,1.029,0.78C35.898,21.32,35.767,20.912,35.636,20.504z" />
  <path fill="#C8102E" d="M35.42,20.427c0.227-0.159,0.453-0.319,0.68-0.481c-0.28-0.004-0.56-0.011-0.84-0.02c-0.087-0.271-0.173-0.541-0.26-0.813c-0.087,0.264-0.173,0.528-0.26,0.792c-0.28-0.013-0.56-0.029-0.84-0.048c0.227,0.18,0.453,0.359,0.68,0.536c-0.087,0.263-0.173,0.526-0.26,0.789c0.227-0.152,0.453-0.307,0.68-0.463c0.227,0.175,0.453,0.348,0.68,0.519C35.593,20.968,35.507,20.698,35.42,20.427z" />
  <path fill="#FFF" d="M39.923,24.137c0.305-0.254,0.61-0.513,0.916-0.777c-0.377,0.051-0.754,0.094-1.132,0.13c-0.117-0.35-0.233-0.7-0.35-1.051c-0.117,0.37-0.233,0.74-0.35,1.109c-0.377,0.027-0.754,0.048-1.132,0.061c0.305,0.212,0.61,0.419,0.916,0.622c-0.117,0.368-0.233,0.736-0.35,1.103c0.305-0.24,0.61-0.483,0.915-0.731c0.305,0.197,0.61,0.39,0.916,0.578C40.156,24.833,40.04,24.485,39.923,24.137z" />
  <path fill="#C8102E" d="M39.707,24.087c0.189-0.156,0.378-0.313,0.567-0.473c-0.233,0.027-0.467,0.051-0.7,0.072c-0.072-0.217-0.144-0.433-0.216-0.651c-0.072,0.229-0.144,0.458-0.216,0.687c-0.233,0.018-0.467,0.033-0.7,0.045c0.189,0.128,0.378,0.254,0.566,0.378c-0.072,0.228-0.144,0.456-0.216,0.684c0.189-0.15,0.378-0.302,0.567-0.456c0.189,0.122,0.378,0.243,0.567,0.361C39.852,24.52,39.779,24.304,39.707,24.087z" />
  <path fill="#FFF" d="M30.552,25.237c0.343-0.207,0.686-0.417,1.029-0.629c-0.424-0.047-0.848-0.098-1.272-0.153c-0.131-0.422-0.262-0.845-0.393-1.268c-0.131,0.387-0.262,0.775-0.393,1.162c-0.424-0.059-0.848-0.122-1.272-0.187c0.343,0.303,0.686,0.605,1.029,0.904c-0.131,0.387-0.262,0.773-0.393,1.159c0.343-0.2,0.686-0.402,1.029-0.606c0.343,0.297,0.686,0.591,1.029,0.883C30.814,26.08,30.683,25.659,30.552,25.237z" />
  <path fill="#C8102E" d="M30.337,25.139c0.227-0.136,0.453-0.273,0.68-0.412c-0.28-0.033-0.56-0.069-0.84-0.105c-0.087-0.279-0.173-0.558-0.26-0.838c-0.087,0.256-0.173,0.512-0.26,0.768c-0.28-0.039-0.56-0.079-0.84-0.12c0.227,0.199,0.453,0.397,0.68,0.594c-0.087,0.255-0.173,0.511-0.26,0.767c0.227-0.133,0.453-0.267,0.68-0.402c0.227,0.196,0.453,0.391,0.68,0.585C30.51,25.697,30.423,25.418,30.337,25.139z" />
  <path fill="#FFF" d="M36.848,32.973c-0.471,0.003-0.941-0.003-1.412-0.017c-0.145-0.454-0.291-0.909-0.436-1.365c-0.145,0.444-0.291,0.887-0.436,1.329c-0.471-0.024-0.941-0.056-1.412-0.094c0.381,0.309,0.761,0.614,1.142,0.914c-0.145,0.442-0.291,0.882-0.436,1.323c0.381-0.252,0.761-0.51,1.142-0.772c0.381,0.294,0.761,0.582,1.142,0.865c-0.145-0.451-0.291-0.904-0.436-1.358C36.087,33.528,36.467,33.253,36.848,32.973z" />
  <path fill="#C8102E" d="M35.49,33.721c0.264-0.185,0.529-0.374,0.793-0.564c-0.327-0.003-0.654-0.01-0.98-0.021c-0.101-0.316-0.202-0.632-0.303-0.949c-0.101,0.308-0.202,0.616-0.303,0.924c-0.327-0.016-0.654-0.035-0.98-0.058c0.264,0.212,0.529,0.421,0.793,0.628c-0.101,0.307-0.202,0.614-0.303,0.92c0.264-0.177,0.529-0.357,0.793-0.539c0.264,0.204,0.529,0.405,0.793,0.604C35.692,34.351,35.591,34.036,35.49,33.721z" />
  <linearGradient id="jLGtd0CXh_SFo9UOIMRrhe" x1="2" x2="46" y1="26" y2="26" gradientTransform="matrix(1 0 0 -1 0 50)" gradientUnits="userSpaceOnUse">
    <stop offset="0" stop-color="#fff" stop-opacity="0" />
    <stop offset=".241" stop-color="#fff" stop-opacity=".62" />
    <stop offset=".409" stop-color="#fff" stop-opacity="0" />
    <stop offset=".587" stop-color="#fff" stop-opacity="0" />
    <stop offset=".794" stop-color="#fff" stop-opacity=".4" />
    <stop offset=".996" stop-color="#fff" stop-opacity="0" />
  </linearGradient>
  <path fill="url(#jLGtd0CXh_SFo9UOIMRrhe)" d="M2,11.334c14.667-4.803,29.333,5.307,44,0.167c0,8.333,0,16.666,0,24.999c-14.667,5.14-29.333-4.97-44-0.167C2,28,2,19.667,2,11.334z" opacity=".3" />
  <linearGradient id="jLGtd0CXh_SFo9UOIMRrhf" x1="2" x2="46" y1="26" y2="26" gradientTransform="matrix(1 0 0 -1 0 50)" gradientUnits="userSpaceOnUse">
    <stop offset=".004" stop-opacity=".8" />
    <stop offset=".097" stop-color="#000615" stop-opacity=".393" />
    <stop offset=".188" stop-color="#000b24" stop-opacity="0" />
    <stop offset=".377" stop-color="#000b24" stop-opacity=".018" />
    <stop offset=".453" stop-color="#000717" stop-opacity=".234" />
    <stop offset=".547" stop-opacity=".5" />
    <stop offset=".621" stop-color="#00030a" stop-opacity=".319" />
    <stop offset=".743" stop-color="#000b24" stop-opacity=".018" />
    <stop offset=".83" stop-color="#000b24" stop-opacity=".018" />
    <stop offset=".9" stop-color="#000718" stop-opacity=".341" />
    <stop offset="1" stop-opacity=".8" />
  </linearGradient>
  <path fill="url(#jLGtd0CXh_SFo9UOIMRrhf)" d="M2,11.334c14.667-4.803,29.333,5.307,44,0.167c0,8.333,0,16.666,0,24.999c-14.667,5.14-29.333-4.97-44-0.167C2,28,2,19.667,2,11.334z" opacity=".8" />
</svg>